SplineFontDB: 3.0
FontName: Coiny-Regular
FullName: Coiny
FamilyName: Coiny Regular
Weight: Regular
Copyright: Copyright (c) 2015, Marcelo Magalhaes
Version: 1.0
ItalicAngle: 0
UnderlinePosition: -100
UnderlineWidth: 50
Ascent: 760
Descent: 240
InvalidEm: 0
UFOAscent: 760
UFODescent: -240
LayerCount: 2
Layer: 0 0 "Back" 1
Layer: 1 0 "Fore" 0
PreferredKerning: 4
FSType: 0
OS2Version: 0
OS2_WeightWidthSlopeOnly: 0
OS2_UseTypoMetrics: 0
CreationTime: 1439837839
ModificationTime: 1440101197
PfmFamily: 16
TTFWeight: 400
TTFWidth: 5
LineGap: 90
VLineGap: 0
Panose: 2 0 5 3 0 0 0 0 0 0
OS2TypoAscent: 760
OS2TypoAOffset: 0
OS2TypoDescent: -240
OS2TypoDOffset: 0
OS2TypoLinegap: 90
OS2WinAscent: 765
OS2WinAOffset: 0
OS2WinDescent: 240
OS2WinDOffset: 0
HheadAscent: 765
HheadAOffset: 0
HheadDescent: -240
HheadDOffset: 0
OS2SubXSize: 650
OS2SubYSize: 700
OS2SubXOff: 0
OS2SubYOff: 140
OS2SupXSize: 650
OS2SupYSize: 700
OS2SupXOff: 0
OS2SupYOff: 480
OS2StrikeYSize: 49
OS2StrikeYPos: 258
OS2CapHeight: 0
OS2XHeight: 515
OS2Vendor: 'PfEd'
OS2CodePages: 00000001.00000000
OS2UnicodeRanges: 00000005.00000000.00000000.00000000
MarkAttachClasses: 1
DEI: 91125
LangName: 1033 "Copyright (c) 2015, Marcelo Magalhaes" "" "" "FontForge : Coiny : 10-8-2015" "" "Version 001.000"
Encoding: TamilPlusLatin3
UnicodeInterp: none
NameList: AGL For New Fonts
DisplaySize: -72
AntiAlias: 1
FitToEm: 1
WinInfo: 136 17 7
BeginPrivate: 5
BlueValues 14 [-4 0 515 515]
OtherBlues 11 [-240 -240]
StemSnapH 36 [79 117 122 134 147 162 170 178 711]
StemSnapV 35 [90 95 102 213 217 224 236 243 258]
BlueShift 1 0
EndPrivate
Grid
-1000 -5.94394683838 m 0
 2000 -5.94394683838 l 1024
-1000 421.056060791 m 0
 2000 421.056060791 l 1024
-1000 595 m 0
 2000 595 l 1024
  Named: "caps"
-1000 414.557800293 m 0
 2000 414.557800293 l 1024
  Named: "x height"
EndSplineSet
BeginChars: 65546 87

StartChar: uni0B85
Encoding: 6 2949 1
GlifName: uni0B_85
Width: 1321
VWidth: 0
GlyphClass: 2
Flags: HW
HStem: -239 184 -222 570 0 82<285.391 359.901 253.891 1001.39 285.391 285.391> 116 54 274 74 292 17
VStem: 316.391 127 502.391 127 716.391 183 993.391 190 993.391 8
LayerCount: 2
Back
SplineSet
521.04296875 259.8671875 m 256
 521.04296875 290.598632812 513.025390625 323.995117188 495.862304688 323.995117188 c 256
 478.131835938 323.995117188 468.842773438 290.208007812 468.842773438 259.899414062 c 256
 468.842773438 229.603515625 477.475585938 196.900390625 495.616210938 196.900390625 c 256
 513.756835938 196.900390625 521.04296875 229.149414062 521.04296875 259.8671875 c 256
495.376953125 140.998046875 m 256
 420.139648438 140.998046875 359.4453125 183.47265625 359.4453125 259 c 256
 359.4453125 335.044921875 417.4765625 380.94921875 495.379882812 380.94921875 c 256
 573.302734375 380.94921875 630.391601562 335.044921875 630.391601562 259 c 256
 630.391601562 183.47265625 570.633789062 140.998046875 495.376953125 140.998046875 c 256
173.008789062 -34 m 256
 173.008789062 72 253.391601562 110 382.391601562 110 c 257
 465.413085938 110 916.391601562 110 1001.39160156 110 c 257
 1001.39160156 0 l 257
 349.391601562 0 l 257
 349.391601562 -44.44921875 407.920898438 -57.7109375 462.391601562 -57.7109375 c 3
 481.448242188 -57.7109375 500.008789062 -56.28125 515.391601562 -54 c 0
 639.568359375 -35.5888671875 717.830078125 81.181640625 717.830078125 184 c 3
 717.830078125 270.4296875 662.412109375 347 532.391601562 347 c 256
 483.391601562 347 460.745117188 317 460.745117188 262 c 256
 360.145507812 262 l 256
 360.145507812 345.7578125 431.391601562 403 542.391601562 403 c 256
 788.892578125 403 901.30859375 258.059570312 901.30859375 106 c 3
 901.30859375 -58.498046875 767.706054688 -238 527.391601562 -238 c 259
 248.391601562 -238 173.008789062 -118 173.008789062 -34 c 256
1182.671875 -81.6171875 m 260
 1182.671875 -178.51953125 1149.44140625 -212.31640625 1087.05175781 -212.31640625 c 260
 1024.66113281 -212.31640625 993.111328125 -184.31640625 993.111328125 -88.2666015625 c 260
 993.111328125 10.568359375 991.181640625 208.024414062 991.181640625 285.696289062 c 256
 991.181640625 361.181640625 1033.08203125 390 1087.05175781 390 c 256
 1141.70117188 390 1182.39160156 377.984375 1182.39160156 293.510742188 c 256
 1182.39160156 211.739257812 1182.671875 31.66015625 1182.671875 -81.6171875 c 260
EndSplineSet
Fore
SplineSet
173.008789062 -34 m 256
 173.008789062 72 253.391601562 110 382.391601562 110 c 257
 465.413085938 110 916.391601562 110 1001.39160156 110 c 257
 1001.39160156 0 l 257
 349.391601562 0 l 256
 348.84765625 -2.7626953125 348.573242188 -5.4287109375 348.573242188 -8 c 3
 348.573242188 -50.705078125 420.122070312 -67.19921875 491.391601562 -67.19921875 c 3
 510.5546875 -67.19921875 529.689453125 -66.107421875 547.391601562 -64 c 256
 688.997070312 -47.142578125 734.041992188 33.4296875 734.041992188 122 c 3
 734.041992188 138.508789062 732.314453125 155.295898438 729.391601562 172 c 256
 715.391601562 252 652.905273438 334 559.391601562 334 c 256
 542.905273438 334 487.745117188 328 487.745117188 262 c 256
 360.145507812 262 l 256
 360.145507812 345.7578125 431.391601562 390 542.391601562 390 c 256
 734.391601562 390 906.391601562 288 906.391601562 88 c 256
 906.391601562 -108.25 790.391601562 -239 534.391601562 -239 c 256
 342.391601562 -239 173.008789062 -155.900390625 173.008789062 -34 c 256
1182.67089844 -91.6171875 m 256
 1182.67089844 -188.51953125 1149.44140625 -222.31640625 1087.05175781 -222.31640625 c 256
 1024.66113281 -222.31640625 993.111328125 -194.31640625 993.111328125 -98.2666015625 c 256
 993.111328125 0.568359375 991.181640625 208.024414062 991.181640625 285.696289062 c 256
 991.181640625 361.181640625 1033.08203125 390 1087.05175781 390 c 256
 1141.70117188 390 1182.39160156 377.984375 1182.39160156 293.510742188 c 256
 1182.39160156 211.739257812 1182.67089844 21.66015625 1182.67089844 -91.6171875 c 256
546.194335938 262 m 256
 546.194335938 287.184570312 537.391601562 315.680664062 517.877929688 315.680664062 c 256
 498.715820312 315.680664062 487.712890625 286.837890625 487.712890625 262 c 256
 487.712890625 237.192382812 497.360351562 212.126953125 517.631835938 212.126953125 c 256
 538.010742188 212.126953125 546.194335938 236.852539062 546.194335938 262 c 256
517.391601562 157.78125 m 256
 430.67578125 157.78125 360.723632812 194.942382812 360.723632812 262 c 256
 360.723632812 317.250976562 427.607421875 351.049804688 517.393554688 351.049804688 c 256
 607.280273438 351.049804688 673.135742188 317.250976562 673.135742188 262 c 256
 673.135742188 194.942382812 604.201171875 157.78125 517.391601562 157.78125 c 256
EndSplineSet
PickledDataWithLists: "(dp1
S'com.fontlab.hintData'
p2
(dp3
S'vhints'
p4
(lp5
(dp6
S'position'
p7
I349
sS'width'
p8
I127
sa(dp9
g7
I535
sg8
I127
sa(dp10
g7
I749
sg8
I183
sa(dp11
g7
I1026
sg8
I190
sa(dp12
g7
I1026
sg8
I8
sasS'hhints'
p13
(lp14
(dp15
g7
I-239
sg8
I184
sa(dp16
g7
I-222
sg8
I570
sa(dp17
g7
I0
sg8
I82
sa(dp18
g7
I116
sg8
I54
sa(dp19
g7
I274
sg8
I74
sa(dp20
g7
I292
sg8
I17
sass."
EndChar

StartChar: uni0B86
Encoding: 7 2950 2
GlifName: uni0B_86
Width: 1440
VWidth: 0
GlyphClass: 2
Flags: HW
HStem: -515 182 -263 67<806 901.5> -244 184 -227 570 -69 134 -5 82 111 54 269 74 287 17
VStem: 267 127 453 127 667 183 708 149<-303.251 -282.5 -303.251 -274.5> 944 8 944 190 1037 76 1189 201
LayerCount: 2
Back
Fore
SplineSet
1080 -315 m 256
 1150.9 -287.555 1188.78 -237 1188.78 -124 c 256
 1188.78 -92 1182 -68.7568 1155.34 -68.7568 c 256
 1130 -68.7568 1112.77 -86 1112.77 -124.43 c 257
 1036.54 -125.174 l 257
 1036.54 -74.4951 1046.97 -17.9053 1095.91 16.2354 c 256
 1147.6 52.2998 1184.74 65 1251 65 c 256
 1309 65 1390 13 1390 -167 c 256
 1390 -371 1232 -515 1010 -515 c 256
 838 -515 708 -441 708 -314 c 256
 708 -235 774 -196 838 -196 c 256
 893 -196 925.288 -213 925.288 -236 c 256
 925.288 -260 908 -263 895 -263 c 256
 868 -263 857 -274 857 -291 c 256
 857 -315.502 910.834 -333.31 974 -333.31 c 256
 1008.99 -333.31 1046.85 -327.833 1080 -315 c 256
EndSplineSet
Refer: 1 2949 N 1 0 0 1 -82 -5 2
PickledDataWithLists: "(dp1
S'com.fontlab.hintData'
p2
(dp3
S'vhints'
p4
(lp5
(dp6
S'position'
p7
I267
sS'width'
p8
I127
sa(dp9
g7
I453
sg8
I127
sa(dp10
g7
I667
sg8
I183
sa(dp11
g7
I708
sg8
I149
sa(dp12
g7
I944
sg8
I8
sa(dp13
g7
I944
sg8
I190
sa(dp14
g7
I1037
sg8
I76
sa(dp15
g7
I1189
sg8
I201
sasS'hhints'
p16
(lp17
(dp18
g7
I-515
sg8
I182
sa(dp19
g7
I-263
sg8
I67
sa(dp20
g7
I-244
sg8
I184
sa(dp21
g7
I-227
sg8
I570
sa(dp22
g7
I-69
sg8
I134
sa(dp23
g7
I-5
sg8
I82
sa(dp24
g7
I111
sg8
I54
sa(dp25
g7
I269
sg8
I74
sa(dp26
g7
I287
sg8
I17
sass."
EndChar

StartChar: uni0B87
Encoding: 8 2951 3
GlifName: uni0B_87
Width: 1387
VWidth: 0
GlyphClass: 2
Flags: HW
HStem: -363 134 -34 107 116 62 266 82 292 17 398 160
VStem: 144 155 197 185<163 288 163 325.5> 445 131 626 131 796 141<122 194 48 216.5> 864 164 1063 190
LayerCount: 2
Back
Fore
SplineSet
1252.21 57 m 260
 1252.21 -31 1252.49 -62.2744 1252.49 -169.301 c 260
 1252.49 -266.203 1219.27 -300 1156.88 -300 c 260
 1094.48 -300 1062.94 -272 1062.94 -175.95 c 260
 1062.94 -82.5869 1061 -13.3721 1061 60 c 260
 1061 270 953 397.857 632 397.857 c 260
 473.969 397.857 382 342 382 234 c 260
 382 92 538.018 -120.569 676 -204 c 260
 703.995 -220.927 733.685 -227.527 761 -227.527 c 260
 817.598 -227.527 864 -194.271 864 -153 c 260
 864 -66 721 -34 600.256 -34 c 260
 474 -34 299 -68 299 -150 c 260
 299 -184.246 356.254 -228.597 429 -228.597 c 260
 464.589 -228.597 503.885150937 -218.708215402 542 -192 c 260
 679 -96 778 52 778 164 c 260
 778 228 730 278 685 278 c 260
 598 278 571.609 269 571.609 220 c 260
 444.01 220 l 260
 444.01 303.758 515.256 348 626.256 348 c 260
 818.256 348 937 262 937 126 c 260
 937 -30 729.757 -363 419 -363 c 260
 221.017 -363 144.087 -257.964 144.087 -163 c 260
 144.087 -142.847 147.52 -123.146 154 -105 c 260
 199 21 406 72.7812 599 72.7812 c 260
 792 72.7812 988.223 24.9658 1020 -105 c 260
 1025.44 -127.242 1027.79 -147.89 1027.79 -167 c 260
 1027.79 -305.123 892.109 -363 777.256 -363 c 260
 487 -363 197 -41.7549 197 223 c 260
 197 428 346 558 668 558 c 260
 1082 558 1252.21 358 1252.21 57 c 260
625.673 220.285 m 260
 625.673 241.692 618.19 265.914 601.604 265.914 c 260
 585.315 265.914 575.963 241.397 575.963 220.285 c 260
 575.963 199.199 584.164 177.894 601.395 177.894 c 260
 618.717 177.894 625.673 198.91 625.673 220.285 c 260
601.256 115.781 m 260
 514.54 115.781 444.588 152.942 444.588 220 c 260
 444.588 275.251 511.472 309.05 601.258 309.05 c 260
 691.145 309.05 757 275.251 757 220 c 260
 757 152.942 688.065 115.781 601.256 115.781 c 260
EndSplineSet
PickledDataWithLists: "(dp1
S'com.fontlab.hintData'
p2
(dp3
S'vhints'
p4
(lp5
(dp6
S'position'
p7
I144
sS'width'
p8
I155
sa(dp9
g7
I197
sg8
I185
sa(dp10
g7
I445
sg8
I131
sa(dp11
g7
I626
sg8
I131
sa(dp12
g7
I796
sg8
I141
sa(dp13
g7
I864
sg8
I164
sa(dp14
g7
I1063
sg8
I190
sasS'hhints'
p15
(lp16
(dp17
g7
I-363
sg8
I134
sa(dp18
g7
I-34
sg8
I107
sa(dp19
g7
I116
sg8
I62
sa(dp20
g7
I266
sg8
I82
sa(dp21
g7
I292
sg8
I17
sa(dp22
g7
I398
sg8
I160
sass."
EndChar

StartChar: uni0B88
Encoding: 9 2952 4
GlifName: uni0B_88
Width: 1011
VWidth: 0
GlyphClass: 2
Flags: HW
HStem: 0 21 99 132 300 110
VStem: 55 190 286 189 527 190 754 189
LayerCount: 2
Back
Fore
SplineSet
885 409.857 m 258
 948.133 409.857 966.695 394.829 966.695 350.577 c 256
 966.695 309.864 937.524 299.554 875 299.554 c 262
 126 302.854 l 262
 73.4395 303.085 55.4932 315.301 55.4932 347.857 c 256
 55.4932 389.857 82.0459 409.857 131.432 409.857 c 258
 885 409.857 l 258
754.173 165 m 256
 754.173 115.271 800.113 98.8408 848.338 98.8408 c 256
 905.575 98.8408 943.338 112.708 943.338 165 c 256
 943.338 209.885 911.077 231 848.338 231 c 256
 786.452 231 754.173 202.515 754.173 165 c 256
286.173 165 m 256
 286.173 115.271 332.113 98.8408 380.338 98.8408 c 256
 437.575 98.8408 475.338 112.708 475.338 165 c 256
 475.338 209.885 443.077 231 380.338 231 c 256
 318.452 231 286.173 202.515 286.173 165 c 256
716.616 130.902 m 256
 716.616 34 683.392 0.203125 621 0.203125 c 256
 558.609 0.203125 527.062 28.2031 527.062 124.253 c 256
 527.062 220.305 525.125 230.068 525.125 305.554 c 256
 525.125 381.039 567.03 409.857 621 409.857 c 256
 675.647 409.857 716.338 397.842 716.338 313.368 c 256
 716.338 233.892 716.616 241 716.616 130.902 c 256
244.616 130.902 m 256
 244.616 34 211.392 0.203125 149 0.203125 c 256
 86.6094 0.203125 55.0615 22.1094 55.0615 118.159 c 256
 55.0615 214.211 55.4932 273.515 55.4932 349 c 256
 55.4932 403 95.0303 409.857 149 409.857 c 256
 203.647 409.857 244.338 397.842 244.338 313.368 c 256
 244.338 233.892 244.616 241 244.616 130.902 c 256
EndSplineSet
PickledDataWithLists: "(dp1
S'com.fontlab.hintData'
p2
(dp3
S'vhints'
p4
(lp5
(dp6
S'position'
p7
I55
sS'width'
p8
I190
sa(dp9
g7
I286
sg8
I189
sa(dp10
g7
I527
sg8
I190
sa(dp11
g7
I754
sg8
I189
sasS'hhints'
p12
(lp13
(dp14
g7
I0
sg8
I21
sa(dp15
g7
I99
sg8
I132
sa(dp16
g7
I300
sg8
I110
sass."
EndChar

StartChar: uni0B8E
Encoding: 12 2958 5
GlifName: uni0B_8E_
Width: 1018
VWidth: 0
GlyphClass: 2
Flags: HW
HStem: -5 63 -5 44 -1 415 200 64 312 103
VStem: 68 189 296 123 477 122 632 189
LayerCount: 2
Back
Fore
SplineSet
820 91.8662109375 m 258
 820 21.638671875 794 -0.9052734375 721.345703125 -0.9052734375 c 256
 650 -0.9052734375 633 32.302734375 633 101.494140625 c 258
 633 315.90625 l 258
 633 374.716796875 667 413.866210938 720.819335938 413.866210938 c 256
 775.465820312 413.866210938 820 397.006835938 820 318.450195312 c 258
 820 91.8662109375 l 258
258 197 m 0
 258 117 332 62 448 62 c 0
 464 62 471 86 471 86 c 2
 591 86 l 0
 582.09375 56.4970703125 558.415039062 29.0322265625 520 12.078125 c 0
 495.381835938 1.2138671875 464.711914062 -5.3330078125 428 -5.3330078125 c 3
 195 -5.3330078125 68 81.25 68 202 c 3
 68 364.049804688 214 414.857421875 448 414.857421875 c 256
 913 414.857421875 l 258
 963 414.857421875 983 400 983 359 c 256
 983 318 947.413085938 305 894 305 c 258
 894 305 572.211914062 309 429 309 c 256x7e
 301 309 258 277 258 197 c 0
476.600585938 132.92578125 m 260
 476.600585938 167.345703125 467.622070312 204.749023438 448.3984375 204.749023438 c 260
 428.540039062 204.749023438 418.13671875 166.908203125 418.13671875 132.962890625 c 260
 418.13671875 99.03125 427.805664062 62.4033203125 448.123046875 62.4033203125 c 260
 468.440429688 62.4033203125 476.600585938 98.5234375 476.600585938 132.92578125 c 260
447.85546875 -0.2080078125 m 260
 363.588867188 -0.2080078125 295.610351562 47.3642578125 295.610351562 131.955078125 c 260
 295.610351562 217.125976562 360.606445312 268.5390625 447.858398438 268.5390625 c 260
 535.131835938 268.5390625 599.072265625 217.125976562 599.072265625 131.955078125 c 260
 599.072265625 47.3642578125 532.142578125 -0.2080078125 447.85546875 -0.2080078125 c 260
EndSplineSet
PickledDataWithLists: "(dp1
S'com.fontlab.hintData'
p2
(dp3
S'vhints'
p4
(lp5
(dp6
S'position'
p7
I68
sS'width'
p8
I189
sa(dp9
g7
I296
sg8
I123
sa(dp10
g7
I477
sg8
I122
sa(dp11
g7
I632
sg8
I189
sasS'hhints'
p12
(lp13
(dp14
g7
I-5
sg8
I63
sa(dp15
g7
I-5
sg8
I44
sa(dp16
g7
I-1
sg8
I415
sa(dp17
g7
I200
sg8
I64
sa(dp18
g7
I312
sg8
I103
sass."
EndChar

StartChar: uni0B8F
Encoding: 13 2959 6
GlifName: uni0B_8F_
Width: 1006
VWidth: 0
GlyphClass: 2
Flags: HW
HStem: -5 63 -5 44 0 415 200 64 306 109 312 103
VStem: 68 189 296 123 477 122 650 189 651 190<143 166> 1009 189
LayerCount: 2
Back
Fore
SplineSet
258 197 m 0
 258 117 332 62 448 62 c 0
 464 62 471 86 471 86 c 2
 591 86 l 0
 582.09375 56.4970703125 558.415039062 29.0322265625 520 12.078125 c 0
 495.381835938 1.2138671875 464.711914062 -5.3330078125 428 -5.3330078125 c 3
 195 -5.3330078125 68 81.25 68 202 c 3
 68 364.049804688 214 414.857421875 448 414.857421875 c 256
 913 414.857421875 l 258
 963 414.857421875 983 400 983 359 c 256
 983 318 947.413085938 308 894 308 c 258
 894 308 572.211914062 312 429 312 c 256x7e
 301 312 258 277 258 197 c 0
476.600585938 132.92578125 m 260
 476.600585938 167.345703125 467.622070312 204.749023438 448.3984375 204.749023438 c 260
 428.540039062 204.749023438 418.13671875 166.908203125 418.13671875 132.962890625 c 260
 418.13671875 99.03125 427.805664062 62.4033203125 448.123046875 62.4033203125 c 260
 468.440429688 62.4033203125 476.600585938 98.5234375 476.600585938 132.92578125 c 260
447.85546875 -0.2080078125 m 260
 363.588867188 -0.2080078125 295.610351562 47.3642578125 295.610351562 131.955078125 c 260
 295.610351562 217.125976562 360.606445312 268.5390625 447.858398438 268.5390625 c 260
 535.131835938 268.5390625 599.072265625 217.125976562 599.072265625 131.955078125 c 260
 599.072265625 47.3642578125 532.142578125 -0.2080078125 447.85546875 -0.2080078125 c 260
540 -44 m 256
 632 6 651 18.2021484375 651 60 c 258
 651 104 l 257
 838 104 l 257
 838 82 l 258
 838 13.29296875 836.77734375 -32.75390625 829 -50 c 256
 806 -101 756 -129 607.151367188 -199.413085938 c 256
 572.578125 -215.768554688 544.729492188 -223.412109375 522 -223.412109375 c 3
 487.142578125 -223.412109375 464.32421875 -204.779296875 447.751953125 -170.84375 c 256
 441.428710938 -157.896484375 438.458007812 -146.4609375 438.458007812 -136 c 256
 438.458007812 -101.168945312 475.099609375 -79.271484375 540 -44 c 256
EndSplineSet
Refer: 7 3006 N 1 0 0 1 596 -0.142181 2
Refer: 0 32 N 1 0 0 1 20 0 2
PickledDataWithLists: "(dp1
S'com.fontlab.hintData'
p2
(dp3
S'vhints'
p4
(lp5
(dp6
S'position'
p7
I68
sS'width'
p8
I189
sa(dp9
g7
I296
sg8
I123
sa(dp10
g7
I477
sg8
I122
sa(dp11
g7
I650
sg8
I189
sa(dp12
g7
I651
sg8
I190
sa(dp13
g7
I1009
sg8
I189
sasS'hhints'
p14
(lp15
(dp16
g7
I-5
sg8
I63
sa(dp17
g7
I-5
sg8
I44
sa(dp18
g7
I0
sg8
I415
sa(dp19
g7
I200
sg8
I64
sa(dp20
g7
I306
sg8
I109
sa(dp21
g7
I312
sg8
I103
sass."
EndChar

StartChar: uni0BBE
Encoding: 42 3006 7
GlifName: uni0B_B_E_
Width: 805
VWidth: 0
GlyphClass: 2
Flags: HW
HStem: 0 415 306 109<146 681 146 167>
VStem: 54 189 413 189
LayerCount: 2
Back
Fore
SplineSet
686 415 m 258
 735.223 415 749.695 400.803 749.695 359 c 256
 749.695 315.476 724 306 681 306 c 258
 681 306 278 306 56 306 c 257
 56 372.146 89.3813 415 146 415 c 258
 686 415 l 258
EndSplineSet
Refer: 36 305 N 1 0 0 1 311 0 2
Refer: 36 305 N 1 0 0 1 -48 0 2
PickledDataWithLists: "(dp1
S'com.fontlab.hintData'
p2
(dp3
S'vhints'
p4
(lp5
(dp6
S'position'
p7
I54
sS'width'
p8
I189
sa(dp9
g7
I413
sg8
I189
sasS'hhints'
p10
(lp11
(dp12
g7
I0
sg8
I415
sa(dp13
g7
I306
sg8
I109
sass."
EndChar

StartChar: period
Encoding: 173 46 9
GlifName: period
Width: 231
VWidth: 0
GlyphClass: 2
Flags: W
HStem: -5 132
VStem: 19 189
LayerCount: 2
Back
Fore
SplineSet
18.835 61.1592 m 256
 18.835 11.4307 64.7754 -5 113 -5 c 256
 170.237 -5 208 8.86719 208 61.1592 c 256
 208 106.044 175.739 127.159 113 127.159 c 256
 51.1143 127.159 18.835 98.6738 18.835 61.1592 c 256
EndSplineSet
PickledDataWithLists: "(dp1
S'com.fontlab.hintData'
p2
(dp3
S'vhints'
p4
(lp5
(dp6
S'position'
p7
I19
sS'width'
p8
I189
sasS'hhints'
p9
(lp10
(dp11
g7
I-5
sg8
I132
sass."
EndChar

StartChar: b
Encoding: 309 98 11
GlifName: b
Width: 552
VWidth: 0
GlyphClass: 2
Flags: W
HStem: -4 107 313 108
VStem: 44 190 327 188
LayerCount: 2
Back
Fore
SplineSet
233.501 132.546 m 257
 242.794 114.787 256.988 102.803 276.991 102.803 c 256
 310.648 102.803 326.591 154.317 326.591 200.402 c 256
 326.591 254.671 307.891 313.147 276.344 313.147 c 256
 256.812 313.147 242.668 300.036 233.36 280.924 c 257
 233.36 251.628 233.501 186.435 233.501 132.546 c 257
232.583 378.358 m 257
 267.172 404.04 309.472 420.802 356.484 420.802 c 257
 447.091 420.802 515.091 336 515.091 218 c 256
 515.091 74 405.491 -4.39746 257.491 -4.39746 c 256
 130.291 -4.39746 43.9365 53.5166 43.9365 162.002 c 258
 42 490.118 l 257
 42 565.604 83.2285 594.422 137.875 594.422 c 256
 202.093 594.422 233.091 556 233.091 497.933 c 258
 232.583 378.358 l 257
EndSplineSet
PickledDataWithLists: "(dp1
S'com.fontlab.hintData'
p2
(dp3
S'vhints'
p4
(lp5
(dp6
S'position'
p7
I44
sS'width'
p8
I190
sa(dp9
g7
I327
sg8
I188
sasS'hhints'
p10
(lp11
(dp12
g7
I-4
sg8
I107
sa(dp13
g7
I313
sg8
I108
sass."
EndChar

StartChar: c
Encoding: 310 99 12
GlifName: c
Width: 532
VWidth: 0
GlyphClass: 2
Flags: W
HStem: -5 141 322 100
VStem: 41 192 303 182
LayerCount: 2
Back
Fore
SplineSet
289.6 241.662 m 256
 289.6 264.062 302.89 283.465 302.89 296.719 c 256
 302.89 311.583 297.935 321.553 280.334 321.553 c 256
 251.052 321.553 232.417 271.699 232.417 224.183 c 256
 232.417 172.583 266.739 136.183 321.6 136.183 c 256
 348.826 136.183 376.8 139.383 398.734 145.823 c 256
 426.443 153.959 437.394 168.912 452.459 168.912 c 256
 480.4 168.912 494 152.982 494 136.183 c 256
 494 95.958 421.063 -5 287.852 -5 c 256
 149.377 -5 40.5156 72.7451 40.5156 210.832 c 256
 40.5156 342.184 144.599 421.383 287.852 421.383 c 256
 429.783 421.383 484.47 369.783 484.47 297.383 c 256
 484.47 257.715 455.852 189.689 357.6 189.689 c 256
 320.449 189.689 289.6 194.282 289.6 241.662 c 256
EndSplineSet
PickledDataWithLists: "(dp1
S'com.fontlab.hintData'
p2
(dp3
S'vhints'
p4
(lp5
(dp6
S'position'
p7
I41
sS'width'
p8
I192
sa(dp9
g7
I303
sg8
I182
sasS'hhints'
p10
(lp11
(dp12
g7
I-5
sg8
I141
sa(dp13
g7
I322
sg8
I100
sass."
EndChar

StartChar: e
Encoding: 312 101 14
GlifName: e
Width: 525
VWidth: 0
GlyphClass: 2
Flags: W
HStem: -5 133 184 64 346 75
VStem: 300 176
LayerCount: 2
Back
Fore
SplineSet
278.853 -5.30566 m 256
 142.057 -5.30566 34.5156 68.4775 34.5156 199.526 c 256
 34.5156 337.74 137.337 421.077 278.853 421.077 c 256
 420.783 421.077 475.471 364.9 475.471 286.077 c 256
 475.471 237.732 438.193 185.219 346.6 184.478 c 258
 99.4004 182.478 l 257
 131.8 246.077 l 257
 131.8 246.077 271.855 248.743 280.956 248.743 c 256
 287.982 248.743 292.028 252.4 295.072 259.906 c 256
 298.116 267.411 299.89 278.159 299.89 291.413 c 256
 299.89 324.233 293.617 346.247 271.335 346.247 c 256
 248.452 346.247 223.418 293.477 223.418 224.478 c 256
 223.418 169.159 253.252 127.877 312.6 127.877 c 256
 339.826 127.877 367.533 132.067 389.735 137.518 c 256
 422.88 145.653 435.979 160.606 454 160.606 c 256
 474.852 160.606 485 146.137 485 130.877 c 256
 485 92.0771 412.063 -5.30566 278.853 -5.30566 c 256
EndSplineSet
PickledDataWithLists: "(dp1
S'com.fontlab.hintData'
p2
(dp3
S'vhints'
p4
(lp5
(dp6
S'position'
p7
I300
sS'width'
p8
I176
sasS'hhints'
p9
(lp10
(dp11
g7
I-5
sg8
I133
sa(dp12
g7
I184
sg8
I64
sa(dp13
g7
I346
sg8
I75
sass."
EndChar

StartChar: f
Encoding: 313 102 15
GlifName: f
Width: 406
VWidth: 0
GlyphClass: 2
Flags: W
HStem: 283 106 473 122
VStem: 86 190
LayerCount: 2
Back
Fore
SplineSet
274.951 402.857 m 257
 274.951 434 280.951 448 292.951 458 c 256
 303.697 466.955 317.579 473 353.458 473 c 256
 381.399 473 395 488.93 395 505.729 c 256
 395 539.041 349.334 595.041 242.386 595.041 c 256
 126.134 595.041 88.0195 540.304 87.165 409.257 c 256
 86.4404 298.133 85.5674 213.282 85.5674 124.531 c 256
 85.5674 28.4824 117.116 0.482422 179.507 0.482422 c 256
 241.897 0.482422 275.122 28.4824 275.122 131.181 c 256
 275.122 215.493 274.951 402.857 274.951 402.857 c 257
EndSplineSet
Refer: 46 139 N 1 0 0 1 -33.5176 -65.0824 2
PickledDataWithLists: "(dp1
S'com.fontlab.hintData'
p2
(dp3
S'vhints'
p4
(lp5
(dp6
S'position'
p7
I86
sS'width'
p8
I190
sasS'hhints'
p9
(lp10
(dp11
g7
I283
sg8
I106
sa(dp12
g7
I473
sg8
I122
sass."
EndChar

StartChar: g
Encoding: 314 103 16
GlifName: g
Width: 557
VWidth: 0
GlyphClass: 2
Flags: W
HStem: -196 122 -4 107 314 108
VStem: 39 189 323 187 335 82
LayerCount: 2
Back
Fore
SplineSet
323.313 -20 m 258
 322.538 317.288 l 258
 322.538 376.1 354.312 415.248 409.635 415.248 c 256
 464.282 415.248 507.817 398.389 507.817 319.833 c 258
 510.312 -0.874023 l 258
 510.312 -111.299 436.912 -196.157 303.474 -196.157 c 256
 170.263 -196.157 103.898 -103.896 103.898 -65.3506 c 256
 103.898 -48.5508 118.513 -34.8408 147.095 -34.8408 c 256
 162.16 -34.8408 172.294 -51.1328 199.537 -60.708 c 256
 221.105 -68.2891 239.188 -74.374 266.414 -74.374 c 256
 309.966 -74.374 323.313 -52.6953 323.313 -20 c 258
EndSplineSet
Refer: 44 137 N 1 0 0 1 -58.0568 1 2
PickledDataWithLists: "(dp1
S'com.fontlab.hintData'
p2
(dp3
S'vhints'
p4
(lp5
(dp6
S'position'
p7
I39
sS'width'
p8
I189
sa(dp9
g7
I323
sg8
I187
sa(dp10
g7
I335
sg8
I82
sasS'hhints'
p11
(lp12
(dp13
g7
I-196
sg8
I122
sa(dp14
g7
I-4
sg8
I107
sa(dp15
g7
I314
sg8
I108
sass."
EndChar

StartChar: i
Encoding: 316 105 18
GlifName: i
Width: 280
VWidth: 0
GlyphClass: 2
Flags: HW
HStem: 0 415 451 132
VStem: 42 199 49 189
LayerCount: 2
Back
Fore
SplineSet
42 522 m 260
 42 472.271484375 89.9404296875 455.840820312 138.165039062 455.840820312 c 260
 195.40234375 455.840820312 241.165039062 469.708007812 241.165039062 522 c 260
 241.165039062 566.884765625 200.904296875 588 138.165039062 588 c 260
 76.279296875 588 42 559.514648438 42 522 c 260
EndSplineSet
Refer: 36 305 N 1 0 0 1 -53.5904 0 2
PickledDataWithLists: "(dp1
S'com.fontlab.hintData'
p2
(dp3
S'vhints'
p4
(lp5
(dp6
S'position'
p7
I42
sS'width'
p8
I199
sa(dp9
g7
I49
sg8
I189
sasS'hhints'
p10
(lp11
(dp12
g7
I0
sg8
I415
sa(dp13
g7
I451
sg8
I132
sass."
EndChar

StartChar: j
Encoding: 317 106 19
GlifName: j
Width: 293
VWidth: 0
GlyphClass: 2
Flags: HW
HStem: -171 130 451 132
VStem: 51 199 55 190
LayerCount: 2
Back
SplineSet
50.835 517 m 256
 50.835 467.271 98.7754 450.841 147 450.841 c 256
 204.237 450.841 250 464.708 250 517 c 256
 250 561.885 209.739 583 147 583 c 256
 85.1143 583 50.835 554.515 50.835 517 c 256
243 323.629 m 258
 243 373.229 206.447 414.403 151.8 414.403 c 256
 97.4004 414.403 55.9248 385.585 55.9248 310.101 c 256
 55.9248 196.532 55.0146 138.767 55.0146 42.0283 c 256
 55.0146 -25.9717 19.0146484375 -41 -23.302734375 -41 c 256
 -52.1806640625 -41 -60.9345703125 -41 -76 -41 c 260
 -97.97265625 -41 -118.568359375 -54 -118.568359375 -80 c 260
 -118.568359375 -118.799804688 -45.6318 -170.955 87.5801 -170.955 c 256
 203.374 -170.955 244.601 -90.6201 244.601 40.4287 c 258
 243 323.629 l 258
EndSplineSet
Fore
SplineSet
50.835 517 m 260
 50.835 467.271 98.7754 450.841 147 450.841 c 260
 204.237 450.841 250 464.708 250 517 c 260
 250 561.885 209.739 583 147 583 c 260
 85.1143 583 50.835 554.515 50.835 517 c 260
243 323.629 m 262
 243 373.229 206.447 414.403 151.8 414.403 c 260
 97.4004 414.403 55.9248 385.585 55.9248 310.101 c 260
 55.9248 196.532 55.0146 138.767 55.0146 42.0283 c 260
 55.0146 -25.9717 19.0146 -41.1318 -23.3027 -41.1318 c 260
 -52.1807 -41.1318 -69.9619 -18.042 -85.0273 -18.042 c 260
 -112.969 -18.042 -118.568 -33.9717 -118.568 -50.7725 c 260
 -118.568 -89.5723 -45.6318 -170.955 87.5801 -170.955 c 260
 203.374 -170.955 244.601 -90.6201 244.601 40.4287 c 262
 243 323.629 l 262
EndSplineSet
PickledDataWithLists: "(dp1
S'com.fontlab.hintData'
p2
(dp3
S'vhints'
p4
(lp5
(dp6
S'position'
p7
I51
sS'width'
p8
I199
sa(dp9
g7
I55
sg8
I190
sasS'hhints'
p10
(lp11
(dp12
g7
I-171
sg8
I130
sa(dp13
g7
I451
sg8
I132
sass."
EndChar

StartChar: k
Encoding: 318 107 20
GlifName: k
Width: 514
VWidth: 0
GlyphClass: 2
Flags: W
HStem: 0 586 0 205 123 162
VStem: 43 186 296 185
LayerCount: 2
Back
Fore
SplineSet
266.077 123.402 m 262
 234.492 123.402 l 260
 234.492 69.8027 201.268 0.201172 138.876 0.201172 c 260
 76.4844 0.201172 44.9375 28.2012 44.9375 124.252 c 260
 44.9375 220.303 43 406.033 43 481.518 c 260
 43 559.402 80.4766 582.721 138.876 585.822 c 261
 214.077 585.822 229.054 537.803 229.054 425.002 c 260
 229.054 383.496 226.4 337.947 221.587 304.358 c 261
 225.562 291.676 235.615 285.002 261.054 285.002 c 260
 287.677 285.002 296.147 293.803 296.147 331.635 c 260
 296.147 383.402 319.339 409.002 390.062 409.002 c 260
 464.401 409.002 481.543 385.002 481.543 318.603 c 260
 481.543 240.202 423.677 205.002 377.277 205.002 c 261
 423.677 205.002 481.543 177.803 481.543 105.803 c 260
 481.543 17.5518 464.401 0.202148 390.062 0.202148 c 260
 319.339 0.202148 296.147 25.8027 296.147 77.5703 c 260
 296.147 117.002 287.9 123.402 266.077 123.402 c 262
EndSplineSet
PickledDataWithLists: "(dp1
S'com.fontlab.hintData'
p2
(dp3
S'vhints'
p4
(lp5
(dp6
S'position'
p7
I43
sS'width'
p8
I186
sa(dp9
g7
I296
sg8
I185
sasS'hhints'
p10
(lp11
(dp12
g7
I0
sg8
I586
sa(dp13
g7
I0
sg8
I205
sa(dp14
g7
I123
sg8
I162
sass."
EndChar

StartChar: m
Encoding: 320 109 22
GlifName: m
Width: 776
VWidth: 0
GlyphClass: 2
Flags: HW
HStem: 0 415 0 21 279 134
VStem: 38 189 148 76 299 174 396 76 547 190
LayerCount: 2
Back
Fore
SplineSet
298.246 229.748 m 256
 298.246 268.711 281.8 278.739 260.201 278.739 c 256
 238.771 278.739 224.63 251.882 224.63 214.066 c 257
 148.396 213.323 l 257
 148.396 264.001 161.474 327.353 208.771 363.731 c 256
 255.658 399.796 294.761 412.496 354.861 412.496 c 256
 430.971 412.496 473 356.497 473 207.697 c 256
 473 33.2969 457.701 0.49707 382.6 0.49707 c 256
 321.534 0.49707 299.294 26.0967 299.294 72.3086 c 256
 299.294 129.632 298.246 189.976 298.246 229.748 c 256
546.246 229.748 m 256
 546.246 268.711 529.8 278.739 508.201 278.739 c 256
 486.771 278.739 472.63 251.882 472.63 214.066 c 257
 396.396 213.323 l 257
 396.396 264.001 408.614 328.497 456.771 363.731 c 256
 506.062 399.796 557.681 412.496 620.861 412.496 c 256
 702.601 412.496 737 356.497 737 207.697 c 256
 737 33.2969 720.348 0.49707 638.6 0.49707 c 256
 571.67 0.49707 547.294 26.0967 547.294 72.3086 c 256
 547.294 129.632 546.246 189.976 546.246 229.748 c 256
EndSplineSet
Refer: 36 305 N 1 0 0 1 -64.5585 0 2
PickledDataWithLists: "(dp1
S'com.fontlab.hintData'
p2
(dp3
S'vhints'
p4
(lp5
(dp6
S'position'
p7
I38
sS'width'
p8
I189
sa(dp9
g7
I148
sg8
I76
sa(dp10
g7
I299
sg8
I174
sa(dp11
g7
I396
sg8
I76
sa(dp12
g7
I547
sg8
I190
sasS'hhints'
p13
(lp14
(dp15
g7
I0
sg8
I415
sa(dp16
g7
I0
sg8
I21
sa(dp17
g7
I279
sg8
I134
sass."
EndChar

StartChar: o
Encoding: 322 111 24
GlifName: o
Width: 552
VWidth: 0
GlyphClass: 2
Flags: W
HStem: -5 99 320 101
VStem: 35 194 323 194
LayerCount: 2
Back
Fore
SplineSet
322.601 206.418 m 260
 322.601 261.053 308.349 320.423 277.835 320.423 c 260
 246.315 320.423 229.801 260.358 229.801 206.476 c 260
 229.801 152.617 245.149 94.4775 277.399 94.4775 c 260
 309.649 94.4775 322.601 151.81 322.601 206.418 c 260
276.974 -4.90527 m 260
 143.217 -4.90527 35.3154 70.6055 35.3154 204.877 c 260
 35.3154 340.068 138.483 421.677 276.979 421.677 c 260
 415.507 421.677 517 340.068 517 204.877 c 260
 517 70.6055 410.763 -4.90527 276.974 -4.90527 c 260
EndSplineSet
PickledDataWithLists: "(dp1
S'com.fontlab.hintData'
p2
(dp3
S'vhints'
p4
(lp5
(dp6
S'position'
p7
I35
sS'width'
p8
I194
sa(dp9
g7
I323
sg8
I194
sasS'hhints'
p10
(lp11
(dp12
g7
I-5
sg8
I99
sa(dp13
g7
I320
sg8
I101
sass."
EndChar

StartChar: r
Encoding: 325 114 27
GlifName: r
Width: 403
VWidth: 0
GlyphClass: 2
Flags: HW
HStem: 0 415 281 134
VStem: 37 189 128 76
LayerCount: 2
Back
Fore
SplineSet
165.421 339 m 256
 186.421 369 244.622 414.857 300.421 414.857 c 256
 361.622 414.857 391.421 387 391.421 328 c 256
 391.421 282 362.421 250 319.421 250 c 256
 274.421 250 276.421 280.742 243.622 280.742 c 256
 211.421 280.742 204.051 253.884 204.051 216.069 c 257
 127.817 215.325 l 257
 127.817 266.004 130.925 289.72 165.421 339 c 256
EndSplineSet
Refer: 36 305 N 1 0 0 1 -65.1915 0 2
PickledDataWithLists: "(dp1
S'com.fontlab.hintData'
p2
(dp3
S'vhints'
p4
(lp5
(dp6
S'position'
p7
I37
sS'width'
p8
I189
sa(dp9
g7
I128
sg8
I76
sasS'hhints'
p10
(lp11
(dp12
g7
I0
sg8
I415
sa(dp13
g7
I281
sg8
I134
sass."
EndChar

StartChar: s
Encoding: 326 115 28
GlifName: s
Width: 492
VWidth: 0
GlyphClass: 2
Flags: HW
HStem: -5 104 340 81
VStem: 39 186
LayerCount: 2
Back
Fore
SplineSet
246.659 421.1 m 256
 124.129 421.1 39.3066 363.748 39.3066 282.5 c 256
 39.3066 235.457 53.6045 198.227 107.307 172.1 c 256
 167.307 140 264.348 141.753 264.348 117.7 c 256
 264.348 105.3 252.181 98.6826 217 98.6826 c 256
 185.924 98.6826 161.301 101.883 136.265 108.323 c 256
 108.558 116.459 89.8135 131.412 74.748 131.412 c 256
 49.748 131.412 39 115.482 39 98.6826 c 256
 39 57.502 113.903 -5.09961 233.147 -5.09961 c 256
 392.955 -5.09961 458.106 70.2842 458.106 130 c 256
 458.106 194.3 434.307 233 344.507 269.9 c 256
 293.494 290.862 225.281 293.1 225.281 320.565 c 256
 225.281 333.1 247.439 340.38 284.474 340.38 c 256
 304.042 340.38 330.249 335.015 350.868 325.139 c 256
 371.548 315.233 399.009 290.588 414.073 290.588 c 256
 427.680242359 290.588 442.494655129 300.22752565 442.494655129 315.99999882 c 3
 442.494655129 364.138303698 365.230752827 421.1 246.659 421.1 c 256
EndSplineSet
PickledDataWithLists: "(dp1
S'com.fontlab.hintData'
p2
(dp3
S'vhints'
p4
(lp5
(dp6
S'position'
p7
I39
sS'width'
p8
I186
sasS'hhints'
p9
(lp10
(dp11
g7
I-5
sg8
I104
sa(dp12
g7
I340
sg8
I81
sass."
EndChar

StartChar: t
Encoding: 327 116 29
GlifName: t
Width: 413
VWidth: 0
GlyphClass: 2
Flags: W
HStem: -5 146 283 106
LayerCount: 2
Back
Fore
SplineSet
73.165 180.862 m 256
 73.165 49.8125 115.134 -4.92188 231.386 -4.92188 c 256
 338.334 -4.92188 384 96.0625 384 156.133 c 256
 384 172.933 370.399 188.862 342.458 188.862 c 256
 316.734 188.862 317.612 140.902 288.734 140.902 c 256
 269.534 140.902 263.951 149.662 263.951 187.262 c 256
 263.951 284 263.551 375.493 263.551 489.062 c 256
 263.551 526.161 259.707 554.543 216.751 554.543 c 256
 158.751 554.543 74.3535 514.754 74.3535 469.062 c 256
 74.3535 358.754 73.165 276.882 73.165 180.862 c 256
EndSplineSet
Refer: 46 139 N 1 0 0 1 -41.0005 -65 2
PickledDataWithLists: "(dp1
S'com.fontlab.hintData'
p2
(dp3
S'hhints'
p4
(lp5
(dp6
S'position'
p7
I-5
sS'width'
p8
I146
sa(dp9
g7
I283
sg8
I106
sass."
EndChar

StartChar: v
Encoding: 329 118 31
GlifName: v
Width: 536
VWidth: 0
GlyphClass: 2
Flags: W
HStem: 0 131
VStem: 39 191 306 191
LayerCount: 2
Back
Fore
SplineSet
267.399 130.657 m 260
 304.126 130.657 306.245 152.528 306.245 197.586 c 260
 306.245 229.585 307.294 289.216 307.294 337.531 c 260
 307.294 389.299 331.671 414.899 406.009 414.899 c 260
 480.349 414.899 497 381.087 497 214.499 c 260
 497 52.8994 365.363 0.0996094 268.822 0.0996094 c 260
 172.333 0.0996094 39.0449 52.8994 39.0449 214.499 c 260
 39.0449 381.087 55.6973 414.899 130.036 414.899 c 260
 204.375 414.899 228.751 389.299 228.751 337.531 c 260
 228.751 289.234 229.8 229.626 229.8 198.386 c 260
 229.8 154.543 229.803 130.657 267.399 130.657 c 260
EndSplineSet
PickledDataWithLists: "(dp1
S'com.fontlab.hintData'
p2
(dp3
S'vhints'
p4
(lp5
(dp6
S'position'
p7
I39
sS'width'
p8
I191
sa(dp9
g7
I306
sg8
I191
sasS'hhints'
p10
(lp11
(dp12
g7
I0
sg8
I131
sass."
EndChar

StartChar: w
Encoding: 330 119 32
GlifName: w
Width: 784
VWidth: 0
GlyphClass: 2
Flags: W
HStem: 0 131
VStem: 43 191 299 187 552 191
LayerCount: 2
Back
Fore
SplineSet
518.199 130.558 m 256
 550.387 130.558 552.245 147.2 552.245 181.486 c 256
 552.245 217.145 553.293 283.593 553.293 337.432 c 256
 553.293 389.199 577.67 414.8 652.009 414.8 c 256
 726.348 414.8 743 380.987 743 214.399 c 256
 743 52.7998 615.979 0 522.822 0 c 256
 482.056 0 435.102 13.0391 393.343 44.6211 c 257
 351.907 13.0391 305.214 0 264.422 0 c 256
 171.292 0 42.6445 52.7998 42.6445 214.399 c 256
 42.6445 380.987 59.2969 414.8 133.636 414.8 c 256
 207.975 414.8 232.352 389.199 232.352 337.432 c 256
 232.352 283.581 233.399 217.119 233.399 182.286 c 256
 233.399 148.801 233.402 130.558 266.199 130.558 c 256
 292.116 130.558 302.591 137.212 306.789 150.773 c 257
 302.055 184.166 299.445 221.274 299.445 262.399 c 256
 299.445 392.785 315.275 414.674 396.022 414.674 c 257
 470.293 414.44 486.199 392.783 486.199 262.399 c 256
 486.199 220.894 483.547 183.502 478.733 149.913 c 257
 482.707 137.23 492.762 130.558 518.199 130.558 c 256
EndSplineSet
PickledDataWithLists: "(dp1
S'com.fontlab.hintData'
p2
(dp3
S'vhints'
p4
(lp5
(dp6
S'position'
p7
I43
sS'width'
p8
I191
sa(dp9
g7
I299
sg8
I187
sa(dp10
g7
I552
sg8
I191
sasS'hhints'
p11
(lp12
(dp13
g7
I0
sg8
I131
sass."
EndChar

StartChar: x
Encoding: 331 120 33
GlifName: x
Width: 520
VWidth: 0
GlyphClass: 2
Flags: W
HStem: 0 21
LayerCount: 2
Back
Fore
SplineSet
453.601 242.847 m 256
 352.966 151.466 250.897 69.3779 201.239 30.4473 c 256
 171.278 7.62207 144.2 0.046875 124.439 0.046875 c 256
 72.2197 0.046875 20 47.6377 20 87.6221 c 256
 20 124.34 86.8389 170.797 185.239 244.822 c 256
 262.124 300.454 339.731 414.422 414.039 414.422 c 256
 456.22 414.422 498.4 366.831 498.4 326.847 c 256
 498.4 287.32 481.175 267.178 453.601 242.847 c 256
64.7998 242.847 m 260
 34.0977 263.088 20 287.32 20 326.847 c 260
 20 366.831 68 414.422 116 414.422 c 260
 135.761 414.422 154.089 403.214 172 388.447 c 260
 205.844 360.544 271.761 299.925 310.761 270.047 c 260
 405.447 195.04 498.4 130.231 498.4 87.6221 c 260
 498.4 47.6377 450.4 0.046875 402.4 0.046875 c 260
 383.144 0.046875 359.562 0.046875 327.562 24.0469 c 260
 275.728 64.0186 170.693 171.068 64.7998 242.847 c 260
EndSplineSet
PickledDataWithLists: "(dp1
S'com.fontlab.hintData'
p2
(dp3
S'hhints'
p4
(lp5
(dp6
S'position'
p7
I0
sS'width'
p8
I21
sass."
EndChar

StartChar: y
Encoding: 332 121 34
GlifName: y
Width: 536
VWidth: 0
GlyphClass: 2
Flags: W
HStem: -176 122
VStem: 38 191 305 191
LayerCount: 2
Back
Fore
SplineSet
496 245.705 m 256
 496 156.78 496 93.7051 488 37.7051 c 256
 469.22 -93.7607 385.6 -176.157 252.161 -176.157 c 256
 118.95 -176.157 52.5859 -83.8955 52.5859 -45.3506 c 256
 52.5859 -28.5508 67.2002 -14.8408 95.7822 -14.8408 c 256
 110.848 -14.8408 120.981 -31.1328 148.225 -40.708 c 256
 169.793 -48.2891 187.875 -54.374 215.102 -54.374 c 256
 258.653 -54.374 272.001 -32.6953 272.001 0 c 257
 159.2 0.905273 38.0449 61.7051 38.0449 213.704 c 256
 38.0449 381.123 54.6973 415.104 129.036 415.104 c 256
 203.375 415.104 227.751 389.504 227.751 337.736 c 256
 227.751 289.093 228.8 229.056 228.8 197.591 c 256
 228.8 153.748 228.802 129.861 266.399 129.861 c 256
 303.125 129.861 305.245 151.733 305.245 196.791 c 256
 305.245 229.019 306.294 289.075 306.294 337.736 c 256
 306.294 389.504 330.67 415.104 405.009 415.104 c 256
 487.151 415.104 496 358.36 496 245.705 c 256
EndSplineSet
PickledDataWithLists: "(dp1
S'com.fontlab.hintData'
p2
(dp3
S'vhints'
p4
(lp5
(dp6
S'position'
p7
I38
sS'width'
p8
I191
sa(dp9
g7
I305
sg8
I191
sasS'hhints'
p10
(lp11
(dp12
g7
I-176
sg8
I122
sass."
EndChar

StartChar: z
Encoding: 333 122 35
GlifName: z
Width: 484
VWidth: 0
GlyphClass: 2
Flags: W
HStem: 0 109 305 109
LayerCount: 2
Back
Fore
SplineSet
394 109.212 m 256
 444 109.212 457.296 89.6504 457.296 47.0732 c 256
 457.296 6.36133 429.749 0.0498047 368.4 0.0498047 c 256
 305.2 0.0498047 164.4 0.0498047 111.601 0.0498047 c 256
 75.6006 0.0498047 32.4004 27.25 32.4004 73.6504 c 256
 32.4004 122.437 39.8408 139.25 85.9951 185.404 c 256
 125.662 227.163 164.115 267.584 199.875 305.178 c 257
 178.519 305.25 157.025 305.25 136.257 305.25 c 256
 74.9092 305.25 47.3623 320.361 47.3623 361.073 c 256
 47.3623 403.65 60.9785 414.412 124.115 414.412 c 256
 191.457 414.412 321.107 414.45 388.4 414.45 c 256
 441.2 414.45 458 370.17 458 347.65 c 256
 458 293.004 444.4 284.88 409.558 250.037 c 256
 365.312 203.825 326.426 158.617 278.167 108.988 c 257
 314.784 109.106 364.168 109.212 394 109.212 c 256
EndSplineSet
PickledDataWithLists: "(dp1
S'com.fontlab.hintData'
p2
(dp3
S'hhints'
p4
(lp5
(dp6
S'position'
p7
I0
sS'width'
p8
I109
sa(dp9
g7
I305
sg8
I109
sass."
EndChar

StartChar: dotlessi
Encoding: 364 305 36
GlifName: dotlessi
Width: 402
VWidth: 0
GlyphClass: 2
Flags: HW
HStem: 0 415
VStem: 102 189
LayerCount: 2
Back
Fore
SplineSet
290 92.8662 m 262
 290 22.6387 264 0.0947266 191.346 0.0947266 c 260
 120 0.0947266 103 33.3027 103 102.494 c 262
 103 316.906 l 262
 103 375.717 137 414.866 190.819 414.866 c 260
 245.466 414.866 290 398.007 290 319.45 c 262
 290 92.8662 l 262
EndSplineSet
PickledDataWithLists: "(dp1
S'com.fontlab.hintData'
p2
(dp3
S'vhints'
p4
(lp5
(dp6
S'position'
p7
I102
sS'width'
p8
I189
sasS'hhints'
p9
(lp10
(dp11
g7
I0
sg8
I415
sass."
EndChar

StartChar: uni0082
Encoding: 65537 130 39
GlifName: uni0082
Width: 464
VWidth: 0
GlyphClass: 2
Flags: W
HStem: 449 146
VStem: 235 190
LayerCount: 2
Back
Fore
SplineSet
424 402.857 m 258
 424 440.457 429.583 449.217 448.783 449.217 c 256
 477.661 449.217 476.783 401.257 502.507 401.257 c 256
 530.448 401.257 544.049 417.187 544.049 433.986 c 256
 544.049 494.057 498.383 595.041 391.435 595.041 c 256
 275.183 595.041 237.068 540.304 236.214 409.257 c 258
 234.616 124.531 l 258
 234.616 28.4824 266.165 0.482422 328.556 0.482422 c 256
 390.946 0.482422 424.171 28.4824 424.171 131.181 c 258
 424 402.857 l 258
EndSplineSet
PickledDataWithLists: "(dp1
S'com.fontlab.hintData'
p2
(dp3
S'vhints'
p4
(lp5
(dp6
S'position'
p7
I235
sS'width'
p8
I190
sasS'hhints'
p9
(lp10
(dp11
g7
I449
sg8
I146
sass."
EndChar

StartChar: uni0083
Encoding: 65538 131 40
GlifName: uni0083
Width: 602
VWidth: 0
GlyphClass: 2
Flags: W
VStem: 217 75
LayerCount: 2
Back
Fore
SplineSet
511.109 348.351 m 256
 511.109 283.856 480.205 232.695 406.766 232.695 c 256
 333.327 232.695 345.87 315.895 319.966 315.895 c 256
 294.062 315.895 291.004 296.463 291.742 253.551 c 257
 216.542 253.095 l 257
 216.542 304.766 238.039 361.703 277.803 396.398 c 256
 317.566 431.094 348.128 446.238 413.994 446.238 c 256
 479.86 446.238 511.109 404 511.109 348.351 c 256
EndSplineSet
PickledDataWithLists: "(dp1
S'com.fontlab.hintData'
p2
(dp3
S'vhints'
p4
(lp5
(dp6
S'position'
p7
I217
sS'width'
p8
I75
sass."
EndChar

StartChar: uni0084
Encoding: 65539 132 41
GlifName: uni0084
Width: 682
VWidth: 0
GlyphClass: 2
Flags: W
HStem: 0 134
VStem: 99 191 372 76
LayerCount: 2
Back
Fore
SplineSet
289.887 183.248 m 256
 289.887 144.285 306.332 134.257 327.931 134.257 c 256
 354.183 134.257 371.502 161.115 371.502 198.93 c 257
 447.735 199.674 l 257
 447.735 148.995 434.675 85.6221 387.361 49.2646 c 256
 335.667 13.2002 281.532 0.5 215.271 0.5 c 256
 133.531 0.5 99.1318 59.499 99.1318 208.299 c 256
 99.1318 382.699 115.784 415.499 197.532 415.499 c 256
 264.462 415.499 288.838 388.899 288.838 342.688 c 256
 288.838 285.364 289.887 223.021 289.887 183.248 c 256
EndSplineSet
PickledDataWithLists: "(dp1
S'com.fontlab.hintData'
p2
(dp3
S'vhints'
p4
(lp5
(dp6
S'position'
p7
I99
sS'width'
p8
I191
sa(dp9
g7
I372
sg8
I76
sasS'hhints'
p10
(lp11
(dp12
g7
I0
sg8
I134
sass."
EndChar

StartChar: uni0085
Encoding: 65540 133 42
GlifName: uni0085
Width: 360
VWidth: 0
GlyphClass: 2
Flags: HW
HStem: 0 595
VStem: 102 190
LayerCount: 2
Back
Fore
SplineSet
291.586 130.699 m 258
 291.586 33.7969 258.361 0 195.97 0 c 256
 133.579 0 102.031 28 102.031 124.05 c 258
 100.095 491.186 l 258
 100.095 566.671 142 595.489 195.97 595.489 c 256
 250.617 595.489 291.308 583.474 291.308 499 c 258
 291.586 130.699 l 258
EndSplineSet
PickledDataWithLists: "(dp1
S'com.fontlab.hintData'
p2
(dp3
S'vhints'
p4
(lp5
(dp6
S'position'
p7
I102
sS'width'
p8
I190
sasS'hhints'
p9
(lp10
(dp11
g7
I0
sg8
I595
sass."
EndChar

StartChar: uni0087
Encoding: 65541 135 43
GlifName: uni0087
Width: 682
VWidth: 0
GlyphClass: 2
Flags: W
HStem: 0 21 282 134
VStem: 209 76 368 190
LayerCount: 2
Back
Fore
SplineSet
366.67 232.75 m 258
 366.67 271.714 350.225 281.742 328.626 281.742 c 256
 302.374 281.742 285.055 254.884 285.055 217.069 c 257
 208.821 216.325 l 257
 208.821 267.004 221.882 330.378 269.195 366.734 c 256
 320.89 402.799 375.024 415.499 441.285 415.499 c 256
 523.025 415.499 557.425 355.5 557.425 206.7 c 256
 557.425 32.2998 540.772 -0.5 459.024 -0.5 c 256
 392.095 -0.5 367.718 25.0996 367.718 71.3115 c 258
 366.67 232.75 l 258
EndSplineSet
PickledDataWithLists: "(dp1
S'com.fontlab.hintData'
p2
(dp3
S'vhints'
p4
(lp5
(dp6
S'position'
p7
I209
sS'width'
p8
I76
sa(dp9
g7
I368
sg8
I190
sasS'hhints'
p10
(lp11
(dp12
g7
I0
sg8
I21
sa(dp13
g7
I282
sg8
I134
sass."
EndChar

StartChar: uni0089
Encoding: 65542 137 44
GlifName: uni0089
Width: 708
VWidth: 0
GlyphClass: 2
Flags: W
HStem: -5 107 313 108
VStem: 97 189 393 82
LayerCount: 2
Back
Fore
SplineSet
392.757 204.677 m 256
 392.757 257.208 375.291 313.423 335.802 313.423 c 256
 304 313.423 285.557 257.02 285.557 204.677 c 256
 285.557 156.231 301.498 102.077 335.156 102.077 c 256
 376.161 102.077 392.757 155.022 392.757 204.677 c 256
255.956 -5.30566 m 256
 168.213 -5.30566 97.0557 70.2773 97.0557 204.677 c 256
 97.0557 339.619 164.867 421.077 255.661 421.077 c 256
 382.024 421.077 474.356 293.201 474.356 212.186 c 256
 474.356 72.9795 377.981 -5.30566 255.956 -5.30566 c 256
EndSplineSet
PickledDataWithLists: "(dp1
S'com.fontlab.hintData'
p2
(dp3
S'vhints'
p4
(lp5
(dp6
S'position'
p7
I97
sS'width'
p8
I189
sa(dp9
g7
I393
sg8
I82
sasS'hhints'
p10
(lp11
(dp12
g7
I-5
sg8
I107
sa(dp13
g7
I313
sg8
I108
sass."
EndChar

StartChar: uni008A
Encoding: 65543 138 45
GlifName: uni008A_
Width: 708
VWidth: 0
GlyphClass: 2
Flags: W
HStem: -5 107 313 108
VStem: 97 82 286 189
LayerCount: 2
Back
Fore
SplineSet
178.655 204.677 m 256
 178.655 155.022 195.251 102.077 236.256 102.077 c 256
 269.914 102.077 285.855 156.231 285.855 204.677 c 256
 285.855 257.02 267.412 313.423 235.61 313.423 c 256
 196.121 313.423 178.655 257.208 178.655 204.677 c 256
315.456 -5.30566 m 256
 193.431 -5.30566 97.0557 72.9795 97.0557 212.186 c 256
 97.0557 293.201 189.388 421.077 315.751 421.077 c 256
 406.545 421.077 474.356 339.619 474.356 204.677 c 256
 474.356 70.2773 403.199 -5.30566 315.456 -5.30566 c 256
EndSplineSet
PickledDataWithLists: "(dp1
S'com.fontlab.hintData'
p2
(dp3
S'vhints'
p4
(lp5
(dp6
S'position'
p7
I97
sS'width'
p8
I82
sa(dp9
g7
I286
sg8
I189
sasS'hhints'
p10
(lp11
(dp12
g7
I-5
sg8
I107
sa(dp13
g7
I313
sg8
I108
sass."
EndChar

StartChar: uni008B
Encoding: 65544 139 46
GlifName: uni008B_
Width: 532
VWidth: 0
GlyphClass: 2
Flags: W
HStem: 348 106<126 131.432 131.432 320.476 320.476 328.618>
LayerCount: 2
Back
Fore
SplineSet
328.618 454 m 258
 131.432 454 l 258
 71 454 55.4932 430 55.4932 399.098 c 256
 55.4932 366.541 73.4541 348 126 348 c 258
 320.476 348 l 258
 382.985 348 412.171 357.644 412.171 395.724 c 256
 412.171 440 391.753 453.66 328.618 454 c 258
EndSplineSet
PickledDataWithLists: "(dp1
S'com.fontlab.hintData'
p2
(dp3
S'hhints'
p4
(lp5
(dp6
S'position'
p7
I348
sS'width'
p8
I106
sass."
EndChar

StartChar: H
Encoding: 214 72 47
GlifName: H_
Width: 671
VWidth: 0
GlyphClass: 2
Flags: HW
HStem: 0 595 229 120<256.235 485.126 287.939 476.983>
VStem: 99.0019 210 212.001 357 459.001 210
LayerCount: 2
Back
Fore
SplineSet
434 354 m 258
 497.135742188 354 517.553710938 333.318359375 517.553710938 283.723632812 c 256
 517.553710938 240.057617188 488.3671875 224 425.857421875 224 c 258
 231.3828125 224 l 258
 178.8359375 224 160.875 250.081054688 160.875 287.09765625 c 256
 160.875 321.939453125 176.381835938 354 236.813476562 354 c 258
 434 354 l 258
261 130.69921875 m 258
 261 33.796875 223.952148438 0 154.383789062 0 c 256
 86.015625 0 51.4443359375 28 51.4443359375 124.049804688 c 258
 49.5078125 491.185546875 l 258
 49.5078125 566.670898438 95.34765625 595.489257812 154.383789062 595.489257812 c 256
 215.3359375 595.489257812 260.721679688 583.473632812 260.721679688 499 c 258
 261 130.69921875 l 258
621 130.69921875 m 258
 621 33.796875 583.952148438 0 514.383789062 0 c 256
 446.015625 0 411.444335938 28 411.444335938 124.049804688 c 258
 409.5078125 491.185546875 l 258
 409.5078125 566.670898438 455.34765625 595.489257812 514.383789062 595.489257812 c 256
 575.3359375 595.489257812 620.721679688 583.473632812 620.721679688 499 c 258
 621 130.69921875 l 258
EndSplineSet
PickledDataWithLists: "(dp1
S'com.fontlab.hintData'
p2
(dp3
S'vhints'
p4
(lp5
(dp6
S'position'
p7
I69
sS'width'
p8
I210
sa(dp9
g7
I182
sg8
I357
sa(dp10
g7
I429
sg8
I210
sasS'hhints'
p11
(lp12
(dp13
g7
I0
sg8
I595
sa(dp14
g7
I229
sg8
I120
sass."
EndChar

StartChar: A
Encoding: 207 65 49
GlifName: A_
Width: 628
VWidth: 0
GlyphClass: 2
Flags: HW
LayerCount: 2
Back
Fore
SplineSet
407 257 m 258
 209.813476562 257 l 258
 149.381835938 257 133.875 224.939453125 133.875 190.09765625 c 256
 133.875 153.081054688 151.8359375 127 204.3828125 127 c 258
 398.857421875 127 l 258
 461.3671875 127 490.553710938 143.057617188 490.553710938 186.723632812 c 256
 490.553710938 236.318359375 470.135742188 257 407 257 c 258
313.6875 445.327148438 m 256
 350 445.327148438 370.631835938 416.557617188 370.631835938 318.387695312 c 256
 370.631835938 242.88671875 371.837890625 158.967773438 371.837890625 90.97265625 c 256
 371.837890625 30.1015625 397.403320312 0 475.360351562 0 c 256
 564.97265625 0 586 45.296875 586 268.46875 c 256
 586 514.939453125 430.754882812 595.46875 317.595703125 595.46875 c 256
 203.650390625 595.46875 44.3515625 514.939453125 44.3515625 268.46875 c 256
 44.3515625 45.296875 66.1640625 0 154.991210938 0 c 256
 232.951171875 0 258.513671875 30.1015625 258.513671875 90.97265625 c 256
 258.513671875 159.013671875 259.719726562 242.987304688 259.719726562 316.23828125 c 256
 259.719726562 416.557617188 278 445.327148438 313.6875 445.327148438 c 256
EndSplineSet
EndChar

StartChar: L
Encoding: 218 76 50
GlifName: L_
Width: 508
VWidth: 0
GlyphClass: 2
Flags: HW
HStem: 0 595
VStem: 57.9922 210
LayerCount: 2
Back
Fore
SplineSet
151.303710938 170.552734375 m 257
 403.447265625 170.276367188 l 258
 466.581054688 170.20703125 495 149.7890625 495 85 c 256
 495 17.3955078125 456.977539062 0 395.303710938 0 c 258
 151.969726562 0 l 257
 151.303710938 170.552734375 l 257
267.5859375 130.69921875 m 258
 267.659179688 33.796875 230.5390625 0 160.969726562 0 c 256
 92.6025390625 0 58.5380859375 28.0029296875 58.03125 124.049804688 c 258
 56.0947265625 491.185546875 l 258
 55.697265625 566.668945312 101.934570312 595.489257812 160.969726562 595.489257812 c 256
 221.921875 595.489257812 267.244140625 583.474609375 267.307617188 499 c 258
 267.5859375 130.69921875 l 258
EndSplineSet
PickledDataWithLists: "(dp1
S'com.fontlab.hintData'
p2
(dp3
S'vhints'
p4
(lp5
(dp6
S'position'
p7
I93
sS'width'
p8
I210
sasS'hhints'
p9
(lp10
(dp11
g7
I0
sg8
I595
sass."
EndChar

StartChar: O
Encoding: 221 79 51
GlifName: O_
Width: 714
VWidth: 0
GlyphClass: 2
Flags: HW
HStem: -5 111 487 114
VStem: 25.5041 226 462.504 226
LayerCount: 2
Back
Fore
SplineSet
423.953125 294 m 256
 423.953125 374.456054688 402.516601562 463.075195312 358.50390625 463.075195312 c 256
 313.090820312 463.075195312 290.177734375 373.3515625 290.177734375 294 c 256
 290.177734375 215.59765625 312.030273438 132.232421875 358.50390625 132.232421875 c 256
 405.012695312 132.232421875 423.953125 214.504882812 423.953125 294 c 256
358.50390625 -4.890625 m 256
 182.407226562 -4.890625 40.0078125 103.334960938 40.0078125 294 c 256
 40.0078125 485.971679688 176.166992188 600.85546875 358.50390625 600.85546875 c 256
 540.78515625 600.85546875 674 485.971679688 674 294 c 256
 674 103.334960938 534.548828125 -4.890625 358.50390625 -4.890625 c 256
EndSplineSet
PickledDataWithLists: "(dp1
S'com.fontlab.hintData'
p2
(dp3
S'vhints'
p4
(lp5
(dp6
S'position'
p7
I22
sS'width'
p8
I226
sa(dp9
g7
I459
sg8
I226
sasS'hhints'
p10
(lp11
(dp12
g7
I-5
sg8
I111
sa(dp13
g7
I487
sg8
I114
sass."
EndChar

StartChar: uni0B9E
Encoding: 23 2974 53
GlifName: uni0B_9E_
Width: 1169
VWidth: 0
GlyphClass: 2
Flags: HW
HStem: -299 160 -5 63 -5 44 -1 415 134 134 200 64 312 103
VStem: -37.8261 191 220.174 189 448.174 123 629.174 122 784.174 189 896.174 76 1048.17 199
LayerCount: 2
Back
Fore
SplineSet
179.51171875 275.510742188 m 260
 161.659179688 239.8046875 153.456054688 203.510742188 153.456054688 168 c 260
 153.456054688 6.466796875 336.853515625 -138.857421875 640.173828125 -138.857421875 c 260
 798.205078125 -138.857421875 1047.95800781 -68 1047.95800781 79 c 260
 1047.95800781 111 1041.17382812 134.243164062 1014.51464844 134.243164062 c 260
 989.173828125 134.243164062 971.943359375 117 971.943359375 78.5703125 c 261
 895.709960938 77.826171875 l 261
 895.709960938 128.504882812 906.147460938 185.094726562 955.083984375 219.235351562 c 260
 1006.77734375 255.299804688 1043.91308594 268 1110.17382812 268 c 260
 1177.87402344 268 1247.35351562 226.79296875 1247.35351562 100 c 260
 1247.35351562 80.701171875 1245.83398438 59.419921875 1242.17382812 36 c 260
 1207.17382812 -188 932.173828125 -299 610.173828125 -299 c 260
 195.919921875 -299 -37.728515625 -67.66015625 -37.728515625 174 c 260
 -37.728515625 234.521484375 -24.1826171875 295.690429688 4.9892578125 354.034179688 c 260
 24.009765625 392.073242188 56.2626953125 414.641601562 90.173828125 414.641601562 c 260
 105.94140625 414.641601562 122.068359375 412.110351562 137.389648438 404.44921875 c 260
 169.671875 388.30859375 196.19140625 370.202148438 196.19140625 338 c 260
 196.19140625 321.4453125 192.338867188 301.165039062 179.51171875 275.510742188 c 260
EndSplineSet
Refer: 5 2958 N 1 0 0 1 152.174 0 2
PickledDataWithLists: "(dp1
S'com.fontlab.hintData'
p2
(dp3
S'vhints'
p4
(lp5
(dp6
S'position'
p7
I-190
sS'width'
p8
I191
sa(dp9
g7
I68
sg8
I189
sa(dp10
g7
I296
sg8
I123
sa(dp11
g7
I477
sg8
I122
sa(dp12
g7
I632
sg8
I189
sa(dp13
g7
I744
sg8
I76
sa(dp14
g7
I896
sg8
I199
sasS'hhints'
p15
(lp16
(dp17
g7
I-299
sg8
I160
sa(dp18
g7
I-5
sg8
I63
sa(dp19
g7
I-5
sg8
I44
sa(dp20
g7
I-1
sg8
I415
sa(dp21
g7
I134
sg8
I134
sa(dp22
g7
I200
sg8
I64
sa(dp23
g7
I312
sg8
I103
sass."
EndChar

StartChar: comma
Encoding: 170 44 54
GlifName: comma
Width: 257
VWidth: 0
GlyphClass: 2
Flags: W
HStem: -6 132
VStem: 126 88
LayerCount: 2
Back
Fore
SplineSet
125.952 4.93164 m 257
 102.976 -34.6885 85 -48 29.1895 -75.2988 c 256
 18.5225 -80.5166 16.5059 -91.5752 16.5059 -100 c 256
 16.5059 -111.854 23.8398 -122.895 32.167 -128.099 c 256
 36.2822 -130.671 42.418 -132.078 50 -132.078 c 256
 102.641 -132.078 225 -73.4404 225 43 c 256
 225 127 135 126.159 127 126.159 c 257
 125.952 4.93164 l 257
24.835 60.1592 m 256
 24.835 10.4307 70.7754 -6 119 -6 c 256
 176.237 -6 214 7.86719 214 60.1592 c 256
 214 105.044 181.739 126.159 119 126.159 c 256
 57.1143 126.159 24.835 97.6738 24.835 60.1592 c 256
EndSplineSet
PickledDataWithLists: "(dp1
S'com.fontlab.hintData'
p2
(dp3
S'vhints'
p4
(lp5
(dp6
S'position'
p7
I126
sS'width'
p8
I88
sasS'hhints'
p9
(lp10
(dp11
g7
I-6
sg8
I132
sass."
EndChar

StartChar: plus
Encoding: 518 43 55
GlifName: plus
Width: 456
VWidth: 0
GlyphClass: 2
Flags: W
LayerCount: 2
Back
Fore
SplineSet
164.661 298.143 m 258
 164.661 361.277 180.343 381.695 229.938 381.695 c 256
 273.604 381.695 284.661 352.51 284.661 290 c 258
 284.661 95.5244 l 258
 284.661 42.9785 263.58 25.0176 226.563 25.0176 c 256
 191.721 25.0176 164.661 40.5244 164.661 100.956 c 258
 164.661 298.143 l 258
319.447 263.356 m 258
 382.582 263.356 403 247.675 403 198.08 c 256
 403 154.414 373.814 143.356 311.305 143.356 c 258
 116.829 143.356 l 258
 64.2832 143.356 46.3223 164.438 46.3223 201.454 c 256
 46.3223 236.297 61.8291 263.356 122.261 263.356 c 258
 319.447 263.356 l 258
EndSplineSet
EndChar

StartChar: hyphen
Encoding: 197 45 56
GlifName: hyphen
Width: 456
VWidth: 0
GlyphClass: 2
Flags: W
LayerCount: 2
Back
Fore
SplineSet
319.447 263.356 m 258
 382.582 263.356 403 247.675 403 198.08 c 256
 403 154.414 373.814 143.356 311.305 143.356 c 258
 116.829 143.356 l 258
 64.2832 143.356 46.3223 164.438 46.3223 201.454 c 256
 46.3223 236.297 61.8291 263.356 122.261 263.356 c 258
 319.447 263.356 l 258
EndSplineSet
EndChar

StartChar: uni0BB0
Encoding: 32 2992 57
GlifName: uni0B_B_0
Width: 929
VWidth: 0
Flags: HW
LayerCount: 2
Back
Fore
SplineSet
433.434570312 -44 m 256
 525.434570312 6 544.434570312 18.2021484375 544.434570312 60 c 258
 544.434570312 104 l 257
 731.434570312 104 l 257
 731.434570312 82 l 258
 731.434570312 13.29296875 730.211914062 -32.75390625 722.434570312 -50 c 256
 699.434570312 -101 649.434570312 -129 500.5859375 -199.413085938 c 256
 466.012695312 -215.768554688 438.1640625 -223.412109375 415.434570312 -223.412109375 c 3
 380.577148438 -223.412109375 357.758789062 -204.779296875 341.186523438 -170.84375 c 256
 334.86328125 -157.896484375 331.892578125 -146.4609375 331.892578125 -136 c 256
 331.892578125 -101.168945312 368.534179688 -79.271484375 433.434570312 -44 c 256
EndSplineSet
Refer: 7 3006 N 1 0 0 1 130.435 0 2
EndChar

StartChar: uni0B89
Encoding: 10 2953 58
GlifName: uni0B_89
Width: 1006
VWidth: 0
Flags: HW
LayerCount: 2
Back
SplineSet
550 88 m 4
 584 104 588.923206892 155.295960616 586 172 c 260
 572 252 509.513671875 334 416 334 c 260
 399.513671875 334 344.353515625 328 344.353515625 262 c 260
 216.75390625 262 l 260
 216.75390625 345.7578125 288 390 399 390 c 260
 591 390 763 288 763 88 c 261
 763 88 501.358104536 65.1096962522 550 88 c 4
402.802734375 262 m 260
 402.802734375 287.184570312 394 315.680664062 374.486328125 315.680664062 c 260
 355.32421875 315.680664062 344.321289062 286.837890625 344.321289062 262 c 260
 344.321289062 237.192382812 353.96875 212.126953125 374.240234375 212.126953125 c 260
 394.619140625 212.126953125 402.802734375 236.852539062 402.802734375 262 c 260
374 157.78125 m 260
 287.284179688 157.78125 217.33203125 194.942382812 217.33203125 262 c 260
 217.33203125 317.250976562 284.215820312 351.049804688 374.001953125 351.049804688 c 260
 463.888671875 351.049804688 529.744140625 317.250976562 529.744140625 262 c 260
 529.744140625 194.942382812 460.809570312 157.78125 374 157.78125 c 260
1077.3046875 110.303710938 m 262
 1140.43847656 110.303710938 1159 94.251953125 1159 50 c 260
 1159 9.287109375 1129.82910156 0 1067.3046875 0 c 262
 318.3046875 0 l 262
 265.744140625 0.23046875 247.797851562 17.443359375 247.797851562 50 c 260
 247.797851562 92 274.350585938 110.303710938 323.737304688 110.303710938 c 262
 1077.3046875 110.303710938 l 262
EndSplineSet
Fore
SplineSet
408.951171875 110 m 1
 408.951171875 126.508789062 406.874023438 154.295898438 403.951171875 171 c 256
 389.951171875 251 327.46484375 333 233.951171875 333 c 256
 217.46484375 333 162.3046875 327 162.3046875 261 c 256
 34.705078125 261 l 256
 34.705078125 344.7578125 105.951171875 389 216.951171875 389 c 256
 408.951171875 389 580.951171875 310 580.951171875 110 c 256
 408.951171875 110 l 1
220.75390625 261 m 256
 220.75390625 286.184570312 211.951171875 314.680664062 192.4375 314.680664062 c 256
 173.275390625 314.680664062 162.272460938 285.837890625 162.272460938 261 c 256
 162.272460938 236.192382812 171.919921875 211.126953125 192.19140625 211.126953125 c 256
 212.5703125 211.126953125 220.75390625 235.852539062 220.75390625 261 c 256
191.951171875 156.78125 m 256
 105.235351562 156.78125 35.283203125 193.942382812 35.283203125 261 c 256
 35.283203125 316.250976562 102.166992188 350.049804688 191.953125 350.049804688 c 256
 281.83984375 350.049804688 347.6953125 316.250976562 347.6953125 261 c 256
 347.6953125 193.942382812 278.760742188 156.78125 191.951171875 156.78125 c 256
893.255859375 110.303710938 m 262
 956.389648438 110.303710938 972.951171875 100.251953125 972.951171875 56 c 260
 972.951171875 15.287109375 956.780273438 0 894.255859375 0 c 262
 132.255859375 0 l 262
 79.6953125 0.23046875 61.7490234375 23.443359375 61.7490234375 56 c 260
 61.7490234375 98 91.3017578125 110.303710938 140.688476562 110.303710938 c 262
 893.255859375 110.303710938 l 262
EndSplineSet
EndChar

StartChar: uni0B8A
Encoding: 11 2954 59
GlifName: uni0B_8A_
Width: 1564
VWidth: 0
Flags: HW
LayerCount: 2
Back
Fore
SplineSet
1187.71972656 312.760742188 m 258
 1187.71972656 201.493164062 l 1282
728.120117188 255.600585938 m 0
 728.120117188 199 791 177.600585938 912.524414062 177.600585938 c 0
 925.32421875 177.600585938 930.923828125 196.799804688 930.923828125 196.799804688 c 2
 1026.92382812 196.799804688 l 0
 1019.49707031 173.198242188 1000.84811395 149.462455543 967.719726562 137.663085938 c 0
 943.317382812 128.971679688 912.915039062 123.733398438 876.524414062 123.733398438 c 3
 707.984375 123.733398438 616.120117188 184.647460938 616.120117188 269.600585938 c 3
 616.120117188 339 694.837203593 389.885742188 821 389.885742188 c 256
 1046 389.885742188 l 258
 1046 389.885742188 1094 388.871198263 1094 355.200195312 c 256
 1095 314 l 257
 1095 314 934.28082211 316 894.919921875 316 c 256x7e
 792.51953125 316 728.120117188 312.520507812 728.120117188 255.600585938 c 0
933 214.340820312 m 256
 933 232.291992188 925.817382812 251.799804688 910.438476562 251.799804688 c 256
 894.551757812 251.799804688 886.229492188 232.069335938 886.229492188 214.370117188 c 256
 886.229492188 196.842773438 893.963867188 177.922851562 910.217773438 177.922851562 c 256
 926.471679688 177.922851562 933 196.575195312 933 214.340820312 c 256
910.00390625 127.833984375 m 256
 842.590820312 127.833984375 788.208007812 158.692382812 788.208007812 213.564453125 c 256
 788.208007812 264.240836803 840.205078125 294.831054688 910.006835938 294.831054688 c 256
 979.825195312 294.831054688 1030.97753906 264.240836803 1030.97753906 213.564453125 c 256
 1030.97753906 158.692382812 977.43359375 127.833984375 910.00390625 127.833984375 c 256
1202.24316406 202.217773438 m 258
 1202.24316406 146.03515625 1184.07878713 128 1133.31933594 128 c 256
 1084.31893922 128 1072.64355469 154.56640625 1072.64355469 209.919921875 c 258
 1072.64355469 311.44921875 l 258
 1072.64355469 358.498046875 1095.97126762 389.817382812 1132.8984375 389.817382812 c 256
 1171.10635851 389.817382812 1202.24316406 376.330078125 1202.24316406 313.484375 c 258
 1202.24316406 202.217773438 l 258
1437.92382812 202.217773438 m 258
 1437.92382812 146.03515625 1419.75945119 128 1369 128 c 256
 1319.9994917 128 1308.32324219 154.56640625 1308.32324219 209.919921875 c 258
 1308.32324219 311.44921875 l 258
 1308.32324219 358.498046875 1331.6518465 389.817382812 1368.57910156 389.817382812 c 256
 1406.78616909 389.817382812 1437.92382812 376.330078125 1437.92382812 313.484375 c 258
 1437.92382812 202.217773438 l 258
1450.04394531 389.924804688 m 258
 1489.42285156 389.924804688 1501 378.56640625 1501 345.124023438 c 256
 1501 318.516908519 1480.44433594 312.724609375 1446.04394531 312.724609375 c 258
 1446.04394531 312.724609375 1231.52655548 312.724609375 1073.44335938 312.724609375 c 257
 1073.44335938 359.573152748 1096.44949002 389.924804688 1135.44335938 389.924804688 c 258
 1450.04394531 389.924804688 l 258
408.951171875 110 m 1
 408.951171875 126.508789062 406.874378767 154.295960616 403.951171875 171 c 256
 389.951171875 251 327.46484375 333 233.951171875 333 c 256
 217.46484375 333 162.3046875 327 162.3046875 261 c 256
 34.705078125 261 l 256
 34.705078125 344.7578125 105.951171875 389 216.951171875 389 c 256
 408.951171875 389 580.951171875 310 580.951171875 110 c 256
 408.951171875 110 l 1
220.75390625 261 m 256
 220.75390625 286.184570312 211.951171875 314.680664062 192.4375 314.680664062 c 256
 173.275390625 314.680664062 162.272460938 285.837890625 162.272460938 261 c 256
 162.272460938 236.192382812 171.919921875 211.126953125 192.19140625 211.126953125 c 256
 212.5703125 211.126953125 220.75390625 235.852539062 220.75390625 261 c 256
191.951171875 156.78125 m 256
 105.235351562 156.78125 35.283203125 193.942382812 35.283203125 261 c 256
 35.283203125 316.250976562 102.166992188 350.049804688 191.953125 350.049804688 c 256
 281.83984375 350.049804688 347.6953125 316.250976562 347.6953125 261 c 256
 347.6953125 193.942382812 278.760742188 156.78125 191.951171875 156.78125 c 256
1433.3046875 110.303710938 m 258
 1503.56818198 110.303710937 1522 100.251953125 1522 56 c 256
 1522 15.287109375 1505.82910156 -7.65703235502e-15 1443.3046875 0 c 258
 132.255859375 0 l 258
 79.7050700062 0 61.7490234375 23.443359375 61.7490234375 56 c 256
 61.7490234375 98 91.3085768242 110.303710938 140.688476562 110.303710938 c 258
 1433.3046875 110.303710938 l 258
EndSplineSet
EndChar

StartChar: uni0BA8
Encoding: 27 2984 60
GlifName: uni0B_A_8
Width: 924
VWidth: 0
Flags: HW
LayerCount: 2
Back
Fore
SplineSet
439.860351562 -215.944335938 m 260
 384.860351562 -215.944335938 322.271484375 -224.147460938 286.565429688 -242 c 260
 260.911132812 -254.827148438 240.630859375 -258.680664062 224.076171875 -258.680664062 c 260
 191.874023438 -258.680664062 173.47265625 -245.401367188 157.33203125 -213.118164062 c 260
 149.671875 -197.796875 147.138671875 -181.669921875 147.138671875 -165.90234375 c 260
 147.138671875 -131.991210938 174.526367188 -94.01953125 212.565429688 -75 c 260
 270.909179688 -45.8271484375 327.259765625 -38 387.78125 -38 c 260
 433.172851562 -38 486.130859375 -40.51953125 538.565429688 -40.51953125 c 7
 668.680664062 -40.51953125 795.565429688 -25.77734375 795.565429688 79 c 260
 795.565429688 111 788.78125 134.243164062 762.122070312 134.243164062 c 260
 736.78125 134.243164062 719.551757812 117 719.551757812 78.5703125 c 261
 643.317382812 77.826171875 l 261
 643.317382812 128.504882812 653.755859375 185.094726562 702.69140625 219.235351562 c 260
 754.384765625 255.299804688 791.520507812 268 857.78125 268 c 260
 925.481445312 268 994.961914062 226.79296875 994.961914062 100 c 260
 994.961914062 80.701171875 993.440429688 59.419921875 989.78125 36 c 260
 954.78125 -188 761.860351562 -215.944335938 439.860351562 -215.944335938 c 260
EndSplineSet
Refer: 7 3006 N 1 0 0 1 119.565 0 2
EndChar

StartChar: uni0BAA
Encoding: 29 2986 61
GlifName: uni0B_A_A_
Width: 658
VWidth: 0
Flags: HW
LayerCount: 2
Back
Fore
SplineSet
501.819335938 0.228515625 m 262
 150 0 l 277
 150 108.866210938 l 261
 372 108.866210938 503 109.228515625 503 109.228515625 c 285
 501.819335938 0.228515625 l 262
601 322.228515625 m 262
 601 95.64453125 l 262
 601 17.087890625 556.465820312 0.228515625 501.819335938 0.228515625 c 260
 448 0.228515625 414 39.3779296875 414 98.1884765625 c 262
 414 312.600585938 l 262
 414 381.791992188 431 415 502.345703125 415 c 260
 575 415 601 392.456054688 601 322.228515625 c 262
242 322.228515625 m 262
 242 95.64453125 l 262
 242 17.087890625 204.646484375 0 150 0 c 260
 96 0 55 39.3779296875 55 98.1884765625 c 262
 55 312.600585938 l 262
 55 381.791992188 72 415 143.345703125 415 c 260
 216 415 242 392.456054688 242 322.228515625 c 262
EndSplineSet
EndChar

StartChar: uni0B9F
Encoding: 24 2975 62
GlifName: uni0B_9F_
Width: 658
VWidth: 0
Flags: HW
LayerCount: 2
Back
Fore
SplineSet
150 110.303710938 m 258
 550.3046875 110.303710938 l 262
 613.438476562 110.303710938 630 100.251953125 630 56 c 260
 630 15.287109375 631.573242188 0 569.048828125 0 c 262
 150 0 l 258
 150 110.303710938 l 258
242 322.228515625 m 258
 242 95.64453125 l 258
 242 17.087890625 204.646484375 0 150 0 c 256
 96 0 55 39.3779296875 55 98.1884765625 c 258
 55 312.600585938 l 258
 55 381.791992188 72 415 143.345703125 415 c 256
 216 415 242 392.456054688 242 322.228515625 c 258
EndSplineSet
EndChar

StartChar: uni0B82
Encoding: 4 2946 63
GlifName: uni0B_82
Width: 1006
VWidth: 0
Flags: HW
LayerCount: 2
Back
Fore
SplineSet
473.674804688 622.510742188 m 260
 473.674804688 653.48828125 465.59375 687.151367188 448.29296875 687.151367188 c 260
 430.419921875 687.151367188 421.057617188 653.094726562 421.057617188 622.543945312 c 260
 421.057617188 592.005859375 429.758789062 559.040039062 448.044921875 559.040039062 c 260
 466.330078125 559.040039062 473.674804688 591.548828125 473.674804688 622.510742188 c 260
447.803710938 502.690429688 m 260
 371.963867188 502.690429688 310.783203125 545.504882812 310.783203125 621.63671875 c 260
 310.783203125 698.291015625 369.280273438 744.5625 447.806640625 744.5625 c 260
 526.352539062 744.5625 583.899414062 698.291015625 583.899414062 621.63671875 c 260
 583.899414062 545.504882812 523.662109375 502.690429688 447.803710938 502.690429688 c 260
EndSplineSet
EndChar

StartChar: I
Encoding: 215 73 65
GlifName: I_
Width: 305
VWidth: 0
Flags: HW
LayerCount: 2
Back
Fore
SplineSet
256.4921875 130.69921875 m 262
 256.4921875 33.796875 219.444335938 0 149.875976562 0 c 260
 81.5078125 0 46.9365234375 28 46.9365234375 124.049804688 c 262
 45 491.185546875 l 262
 45 566.670898438 90.83984375 595.489257812 149.875976562 595.489257812 c 260
 210.828125 595.489257812 256.213867188 583.473632812 256.213867188 499 c 262
 256.4921875 130.69921875 l 262
EndSplineSet
EndChar

StartChar: E
Encoding: 211 69 66
GlifName: E_
Width: 549
VWidth: 0
Flags: HW
LayerCount: 2
Back
Fore
SplineSet
390.58984375 358 m 258
 453.725585938 358 474.143554688 337.318359375 474.143554688 287.723632812 c 256
 474.143554688 244.057617188 444.95703125 228 382.447265625 228 c 258
 187.97265625 228 l 258
 135.42578125 228 117.46484375 254.081054688 117.46484375 291.09765625 c 256
 117.46484375 325.939453125 132.971679688 358 193.403320312 358 c 258
 390.58984375 358 l 258
153.303710938 434.723632812 m 257
 153.969726562 595.276367188 l 257
 422.303710938 595.276367188 l 258
 483.977539062 595.276367188 522 579.927734375 522 520.276367188 c 256
 522 455.487304688 493.581054688 435.0625 430.447265625 435 c 258
 153.303710938 434.723632812 l 257
153.303710938 160.552734375 m 257
 430.447265625 160.276367188 l 258
 493.581054688 160.208984375 522 139.7890625 522 75 c 256
 522 15.3486328125 483.977539062 0 422.303710938 0 c 258
 153.969726562 0 l 257
 153.303710938 160.552734375 l 257
259.725585938 120.69921875 m 258
 259.791992188 31.2109375 222.678710938 0 153.109375 0 c 256
 84.7421875 0 50.677734375 28.0029296875 50.1708984375 124.049804688 c 258
 48.234375 491.185546875 l 258
 47.8369140625 566.668945312 94.07421875 595.489257812 153.109375 595.489257812 c 256
 214.061523438 595.489257812 259.385742188 583.474609375 259.447265625 499 c 258
 259.725585938 120.69921875 l 258
EndSplineSet
EndChar

StartChar: T
Encoding: 226 84 67
GlifName: T_
Width: 594
VWidth: 0
Flags: HW
LayerCount: 2
Back
Fore
SplineSet
409 127.307617188 m 258
 409 30.4052734375 371.952148438 -3.3916015625 302.383789062 -3.3916015625 c 256
 234.015625 -3.3916015625 199.444335938 24.6083984375 199.444335938 120.658203125 c 258
 197.5078125 487.793945312 l 258
 197.5078125 563.279296875 243.34765625 592.09765625 302.383789062 592.09765625 c 256
 363.3359375 592.09765625 408.721679688 580.08203125 408.721679688 495.608398438 c 258
 409 127.307617188 l 258
289.030273438 420.055664062 m 257
 130.696289062 420.055664062 l 258
 62.91796875 420.055664062 21 435.404296875 21 495.055664062 c 256
 21 571.241210938 52.05859375 595.209960938 122.552734375 595.33203125 c 258
 297 595.608398438 l 257
 495.139648438 595.33203125 l 258
 557.999023438 595.235351562 586.692382812 573.643554688 586.692382812 505.055664062 c 256
 586.692382812 437.451171875 548.943359375 420.055664062 486.99609375 420.055664062 c 258
 289.030273438 420.055664062 l 257
EndSplineSet
EndChar

StartChar: F
Encoding: 212 70 68
GlifName: F_
Width: 535
VWidth: 0
Flags: HW
LayerCount: 2
Back
Fore
SplineSet
398.58984375 354 m 258
 461.725585938 354 482.143554688 337.1171875 482.143554688 283.723632812 c 256
 482.143554688 236.068359375 452.958007812 224 390.447265625 224 c 258
 185.97265625 224 l 258
 133.426757812 224 115.46484375 246.895507812 115.46484375 287.09765625 c 256
 115.46484375 324.75390625 130.97265625 354 191.403320312 354 c 258
 398.58984375 354 l 258
151.303710938 426.723632812 m 257
 151.969726562 595.276367188 l 257
 430.303710938 595.276367188 l 258
 491.977539062 595.276367188 530 579.313476562 530 517.276367188 c 256
 530 448.688476562 501.581054688 427.06640625 438.447265625 427 c 258
 151.303710938 426.723632812 l 257
257.725585938 120.69921875 m 258
 257.791992188 31.2109375 220.678710938 0 151.109375 0 c 256
 82.7421875 0 48.677734375 28.0029296875 48.1708984375 124.049804688 c 258
 46.234375 491.185546875 l 258
 45.8369140625 566.668945312 92.07421875 595.489257812 151.109375 595.489257812 c 256
 212.061523438 595.489257812 257.385742188 583.100585938 257.447265625 496 c 258
 257.725585938 120.69921875 l 258
EndSplineSet
EndChar

StartChar: J
Encoding: 216 74 69
GlifName: J_
Width: 548
VWidth: 0
Flags: HW
LayerCount: 2
Back
SplineSet
145.624023438 149 m 260
 145.624023438 200.766601562 122.431640625 226.366210938 51.708984375 226.366210938 c 260
 -22.6298828125 226.366210938 -39.7724609375 202.366210938 -39.7724609375 135.967773438 c 260
 -39.7724609375 57.56640625 18.09375 22.3662109375 64.494140625 22.3662109375 c 1285
184.814453125 124.049804688 m 262
 182.877929688 491.185546875 l 262
 182.877929688 566.670898438 228.717773438 595.489257812 287.75390625 595.489257812 c 260
 348.706054688 595.489257812 394.024414062 583.473632812 394.091796875 499 c 262
 394.370117188 153 l 262
 184.814453125 124.049804688 l 262
304.624023438 225 m 4
 394.370117188 228 l 5
 394.370117188 228 396.432617188 274.283203125 394.370117188 153 c 4
 392.624023438 50.30078125 306.624023438 0 173.624023438 -5.9443359375 c 4
 66.7265625 -10.7216796875 -6.1494140625 18.798828125 -17.3759765625 127 c 260
 -21.46484375 166.412109375 17.625 231 52.6240234375 219 c 260
 118.43359375 196.436523438 196.256835938 198.376953125 196.256835938 225 c 260
 304.624023438 225 l 4
EndSplineSet
Fore
SplineSet
231.25390625 212.032226562 m 0
 229.06640625 201.002929688 227.974609375 190.978515625 227.974609375 182 c 0
 227.974609375 146.1796875 247.731445312 127 265.25390625 127 c 0
 283.25390625 127 292.25390625 132 292.25390625 164 c 2
 292.25390625 207.895507812 l 1
 290.5078125 491.185546875 l 2
 290.065429688 562.975585938 319.998046875 595.489257812 395.383789062 595.489257812 c 0
 455 595.489257812 501.655273438 575 501.721679688 499 c 2
 502 177 l 2
 502 38.42578125 418.587890625 -5.9443359375 273.338867188 -5.9443359375 c 0
 89.080078125 -5.9443359375 35.857421875 110.521484375 35.857421875 189 c 0
 35.857421875 264.557617188 53.9375 289.3984375 132.338867188 289.3984375 c 0
 197.926757812 289.3984375 232.80078125 265.671875 232.80078125 228 c 0
 232.80078125 222.922851562 232.357421875 217.591796875 231.25390625 212.032226562 c 0
EndSplineSet
EndChar

StartChar: K
Encoding: 217 75 70
GlifName: K_
Width: 589
VWidth: 0
Flags: HW
LayerCount: 2
Back
Fore
SplineSet
440 275 m 261
 495 275 563 222 563 140 c 260
 563 24 542 0 456 0 c 4
 381 0 347 28 347 86 c 260
 347 197 328 206 292 206 c 5
 263 206 l 5
 263 130 l 6
 263 34 222 0 152 0 c 260
 84 0 49 31 49 124 c 261
 49 124 48 340 48 486 c 4
 48 558 74 595.489257812 141 595.489257812 c 263
 206 595.489257812 259 585 259 501 c 260
 259 451 258 425 258 393 c 261
 258 372 273 357 304 357 c 260
 334 357 342 385 342 507 c 260
 342 566 374 595.489257812 454 595.489257812 c 260
 539 595.489257812 558 567 558 492 c 260
 558 347 493 275 440 275 c 261
EndSplineSet
EndChar

StartChar: P
Encoding: 222 80 71
GlifName: P_
Width: 597
VWidth: 0
Flags: HW
LayerCount: 2
Back
Fore
SplineSet
257.918945312 130.69921875 m 262
 257.918945312 33.796875 220.87109375 0 151.302734375 0 c 260
 82.9345703125 0 48.36328125 28 48.36328125 124.049804688 c 262
 46.4267578125 491.185546875 l 262
 46.4267578125 566.670898438 92.2666015625 595.489257812 151.302734375 595.489257812 c 260
 212.254882812 595.489257812 257.640625 583.473632812 257.640625 499 c 262
 257.918945312 130.69921875 l 262
272.9765625 293.197265625 m 5
 314.944335938 293.197265625 354.161132812 322.076171875 354.161132812 390 c 260
 354.161132812 466 328.61328125 484.197265625 273.918945312 484.197265625 c 5
 273.918945312 484.197265625 185.025390625 483.609375 176.918945312 483.609375 c 4
 176.918945312 595.197265625 l 5
 305.9765625 595.78515625 l 5
 457.203125 595.78515625 568 513.544921875 568 377.305664062 c 260
 568 250.146484375 450.81640625 179.197265625 306.918945312 179.197265625 c 5
 306.918945312 179.197265625 187.525390625 178.609375 176.918945312 178.609375 c 4
 176.918945312 292.609375 l 5
 272.9765625 293.197265625 l 5
EndSplineSet
EndChar

StartChar: R
Encoding: 224 82 72
GlifName: R_
Width: 599
VWidth: 0
Flags: HW
LayerCount: 2
Back
Fore
SplineSet
255.041992188 130.69921875 m 258
 255.041992188 33.796875 217.994140625 0 148.42578125 0 c 256
 80.0576171875 0 45.486328125 28 45.486328125 124.049804688 c 258
 43.5498046875 491.185546875 l 258
 43.5498046875 566.670898438 89.3896484375 595 148.42578125 595 c 256
 209.377929688 595 254.763671875 583.473632812 254.763671875 499 c 258
 255.041992188 130.69921875 l 258
276.123046875 358 m 5
 318.090820312 358 357.307617188 370.005859375 357.307617188 422.802734375 c 260
 357.307617188 469.904296875 331.759765625 483 277.065429688 483 c 5
 277.065429688 483 176.311523438 482.412109375 167.123046875 482.412109375 c 4
 167.42578125 595 l 5
 309.123046875 594.587890625 l 5
 460.349609375 594.587890625 561.146484375 521.043945312 561.146484375 416.108398438 c 260
 561.146484375 298 488.180664062 258.802734375 294.123046875 258.802734375 c 5
 294.123046875 258.802734375 206.008789062 258.21484375 198.180664062 258.21484375 c 4
 199.123046875 357.412109375 l 5
 276.123046875 358 l 5
303.123046875 215.510742188 m 5
 222.123046875 215 l 5
 221.123046875 274.612304688 l 4
 446.866210938 274.612304688 l 261
 501.662109375 274.612304688 570 221.8359375 570 140 c 260
 570 23 538.123046875 0 465.31640625 0 c 260
 391.23828125 0 359.946289062 28.5966796875 359.946289062 86.4208984375 c 260
 359.946289062 197.485351562 339.123046875 215.510742188 303.123046875 215.510742188 c 5
EndSplineSet
EndChar

StartChar: B
Encoding: 208 66 73
GlifName: B_
Width: 600
VWidth: 0
Flags: HW
LayerCount: 2
Back
SplineSet
264.694335938 135.69921875 m 258
 264.771484375 35.08984375 227.646484375 0 158.078125 0 c 256
 89.7099609375 0 55.64453125 28.0029296875 55.138671875 124.049804688 c 258
 53.2021484375 491.185546875 l 258
 52.8037109375 566.668945312 99.0419921875 595 158.078125 595 c 256
 219.030273438 595 264.350585938 583.473632812 264.416015625 499 c 258
 264.694335938 135.69921875 l 258
266.775390625 253.802734375 m 1
 170.717773438 254.390625 l 1
 169.775390625 368.587890625 l 0
 177.603515625 368.587890625 265.717773438 368 265.717773438 368 c 1
 418.89453125 368 571.798828125 315.978515625 571.798828125 180.694335938 c 256
 571.798828125 91 531.775390625 0 335.775390625 0 c 1
 158.078125 0 l 1
 170.717773438 126.390625 l 0
 178.82421875 126.390625 267.717773438 125.802734375 267.717773438 125.802734375 c 1
 322.412109375 125.802734375 357.959960938 145.608398438 357.959960938 186 c 256
 357.959960938 238.796875 308.743164062 253.802734375 266.775390625 253.802734375 c 1
266.775390625 368 m 1
 308.743164062 368 347.959960938 379.079101562 347.959960938 427.802734375 c 256
 347.959960938 470.9921875 322.412109375 483 267.717773438 483 c 1
 267.717773438 483 166.962890625 482.412109375 157.775390625 482.412109375 c 0
 158.078125 595 l 1
 299.775390625 594.587890625 l 1
 451.001953125 594.587890625 551.798828125 521.043945312 551.798828125 416.108398438 c 256
 551.798828125 283.9765625 418.89453125 253.802734375 265.717773438 253.802734375 c 1
 265.717773438 253.802734375 177.603515625 253.21484375 169.775390625 253.21484375 c 0
 170.717773438 367.412109375 l 1
 266.775390625 368 l 1
EndSplineSet
Fore
SplineSet
265.495117188 135.69921875 m 258
 265.572265625 35.08984375 228.447265625 0 158.87890625 0 c 256
 90.5107421875 0 56.4453125 28.0029296875 55.939453125 124.049804688 c 258
 54.0029296875 491.185546875 l 258
 53.6044921875 566.668945312 99.8427734375 595 158.87890625 595 c 256
 219.831054688 595 265.151367188 583.473632812 265.216796875 499 c 258
 265.495117188 135.69921875 l 258
267.576171875 253.802734375 m 1
 171.518554688 254.390625 l 1
 170.576171875 368.587890625 l 0
 178.404296875 368.587890625 266.518554688 368 266.518554688 368 c 1
 419.6953125 368 572.599609375 315.978515625 572.599609375 180.694335938 c 256
 572.599609375 91 532.576171875 0 336.576171875 0 c 1
 158.87890625 0 l 1
 171.518554688 126.390625 l 0
 179.625 126.390625 268.518554688 125.802734375 268.518554688 125.802734375 c 1
 323.212890625 125.802734375 358.760742188 145.608398438 358.760742188 186 c 256
 358.760742188 238.796875 309.543945312 253.802734375 267.576171875 253.802734375 c 1
267.576171875 368 m 1
 309.543945312 368 348.760742188 379.079101562 348.760742188 427.802734375 c 256
 348.760742188 470.9921875 323.212890625 483 268.518554688 483 c 1
 268.518554688 483 167.763671875 482.412109375 158.576171875 482.412109375 c 0
 158.87890625 595 l 1
 300.576171875 594.587890625 l 1
 451.802734375 594.587890625 552.599609375 521.043945312 552.599609375 416.108398438 c 256
 552.599609375 283.9765625 419.6953125 253.802734375 266.518554688 253.802734375 c 1
 266.518554688 253.802734375 178.404296875 253.21484375 170.576171875 253.21484375 c 0
 171.518554688 367.412109375 l 1
 267.576171875 368 l 1
EndSplineSet
EndChar

StartChar: S
Encoding: 225 83 74
GlifName: S_
Width: 627
VWidth: 0
Flags: HW
LayerCount: 2
Back
SplineSet
322.72265625 595 m 260
 151.180664062 595 32.4296875 516 32.4296875 414.557617188 c 260
 32.4296875 348.697265625 61.0009765625 295.44140625 134.72265625 256 c 260
 218.72265625 211.059570312 276.72265625 199.9140625 276.72265625 166.240234375 c 260
 276.72265625 121.234375 201.3125 143.379882812 168.170898438 153.112304688 c 260
 129.381835938 164.502929688 103.138671875 185.436523438 82.0478515625 185.436523438 c 260
 47.0478515625 185.436523438 32 163.134765625 32 139.616210938 c 260
 32 81.962890625 136.864257812 -5.6796875 303.805664062 -5.6796875 c 260
 527.537109375 -5.6796875 609.749023438 99.8583984375 609.749023438 183.459960938 c 260
 609.749023438 273.48046875 561.354492188 309.526367188 437.72265625 366 c 260
 356.72265625 403 329.72265625 418 337.72265625 450.250976562 c 260
 345.607421875 482.037109375 399.72265625 483 447.72265625 460 c 260
 476.672851562 446.127929688 527.012695312 412.283203125 548.102539062 412.283203125 c 260
 569.943359375 412.283203125 586.744140625 421.055664062 586.744140625 458.103515625 c 260
 586.744140625 512.423828125 491.4609375 595 322.72265625 595 c 260
EndSplineSet
Fore
SplineSet
323 601 m 256
 151.458007812 601 52 522.37890625 52 421.055664062 c 256
 52 355.1953125 79.8505859375 310.772460938 139 270 c 256
 242 199 285 200 285 167 c 256
 285 146.587890625 267.842773438 139.453125 246 139.453125 c 3
 183.341796875 139.453125 119.109375 185.436523438 82.3251953125 185.436523438 c 256
 47.3251953125 185.436523438 32.27734375 163.134765625 32.27734375 139.616210938 c 256
 32.27734375 81.962890625 150.05859375 -6 317 -6 c 256
 540.731445312 -6 584 90.3984375 584 174 c 260
 584 234.540039062 559 284 465 344 c 256
 389.9375 391.912109375 317 410 317 452 c 256
 317 472.364257812 335.743164062 483.970703125 362 483.970703125 c 3
 381.126953125 483.970703125 405 481 434 468 c 256
 486.655273438 444.395507812 488.120117188 428.818359375 529 428.818359375 c 3
 545.982421875 428.818359375 566.2734375 441.901367188 566.2734375 468 c 3
 566.2734375 528.419921875 470.061523438 601 323 601 c 256
EndSplineSet
EndChar

StartChar: V
Encoding: 228 86 75
GlifName: V_
Width: 628
VWidth: 0
Flags: HW
LayerCount: 2
Back
Fore
SplineSet
316.958984375 145.672851562 m 256
 368.649414062 145.672851562 371.631835938 197.110351562 371.631835938 303.081054688 c 256
 371.631835938 349.485351562 372.837890625 435.9609375 372.837890625 506.02734375 c 256
 372.837890625 565.560546875 399.63671875 595 481.360351562 595 c 256
 566.922851562 595 587 549.028320312 587 322.53125 c 256
 587 76.060546875 431.75390625 -4.46875 318.595703125 -4.46875 c 256
 204.649414062 -4.46875 45.3515625 76.060546875 45.3515625 322.53125 c 256
 45.3515625 549.028320312 66.177734375 595 150.991210938 595 c 256
 232.715820312 595 259.513671875 565.560546875 259.513671875 506.02734375 c 256
 259.513671875 435.904296875 260.719726562 349.360351562 260.719726562 304.000976562 c 256
 260.719726562 201.510742188 260.724609375 145.672851562 316.958984375 145.672851562 c 256
EndSplineSet
EndChar

StartChar: N
Encoding: 220 78 76
GlifName: N_
Width: 677
VWidth: 0
Flags: HW
LayerCount: 2
Back
Fore
SplineSet
630.004882812 112.69921875 m 6
 630.071289062 19.9892578125 583.44921875 -5.9443359375 516.44921875 -6 c 4
 453.44921875 -6.052734375 407.248046875 24.4033203125 337.44921875 112 c 4
 273.072265625 192.79296875 211.44921875 262.489257812 211.44921875 262.489257812 c 5
 211.534179688 111 l 6
 211.588867188 14.09765625 183.173828125 0 129.91796875 0 c 4
 78.1533203125 0 52.3046875 16.80078125 51.978515625 86 c 6
 50.0419921875 496.185546875 l 6
 49.7314453125 561.999023438 91.4599609375 595.489257812 157.44921875 595.489257812 c 4
 215.463867188 595.489257812 245.466796875 586.306640625 285.44921875 550 c 4
 384.107421875 460.411132812 469.252929688 330.7734375 469.252929688 330.7734375 c 5
 468.512695312 492.185546875 l 6
 468.166015625 567.668945312 500.670898438 595 548.44921875 595 c 4
 605.349609375 595 629.677734375 568 629.7265625 500 c 6
 630.004882812 112.69921875 l 6
EndSplineSet
EndChar

StartChar: U
Encoding: 227 85 77
GlifName: U_
Width: 632
VWidth: 0
Flags: HW
LayerCount: 2
Back
Fore
SplineSet
583.875976562 490.696289062 m 2
 583.875976562 490.696289062 584 357 584 232 c 0
 584 107 515.67578125 0 324.67578125 0 c 7
 133.67578125 0 49 78.83984375 49 232 c 0
 49 385.159179688 48.1220703125 491.45703125 48.1220703125 491.45703125 c 2
 48.1220703125 566.198242188 94.1630859375 595 154.057617188 595 c 256
 213.952148438 595 259 583 259.337890625 498.510742188 c 2
 259.337890625 215 l 1
 261.194335938 160.451171875 282.790039062 144 325.08203125 144 c 0
 367.374023438 144 374.0546875 176 374.0546875 215 c 2
 374.0546875 499.405273438 l 2
 374.0546875 582.700195312 426 595 488.063476562 595 c 256
 550.127929688 595 583.834960938 566.993164062 583.875976562 490.696289062 c 2
EndSplineSet
EndChar

StartChar: D
Encoding: 210 68 78
GlifName: D_
Width: 644
VWidth: 0
Flags: HW
LayerCount: 2
Back
Fore
SplineSet
174.208984375 0 m 260
 173.848632812 127.390625 l 4
 181.955078125 127.390625 284.953125 126.802734375 284.953125 126.802734375 c 260
 336.504882812 126.802734375 376.953125 170.51953125 376.953125 304 c 260
 376.953125 426.5078125 333.73828125 465.625976562 284.953125 465.625976562 c 260
 172.569335938 467.609375 l 5
 174.208984375 595 l 4
 182.315429688 595 298.953125 595 298.953125 595 c 260
 480.05859375 595 603 485.956054688 603 301 c 260
 603 157.918945312 537.487304688 0 346.953125 0 c 7
 284.022460938 0 272.037109375 0 174.208984375 0 c 260
260.825195312 130.69921875 m 262
 260.8984375 33.796875 223.77734375 0 154.208984375 0 c 260
 85.8408203125 0 51.7763671875 28.0029296875 51.26953125 124.049804688 c 262
 49.3330078125 491.185546875 l 262
 48.9345703125 566.668945312 95.1728515625 595 154.208984375 595 c 260
 215.161132812 595 260.482421875 583.473632812 260.546875 499 c 262
 260.825195312 130.69921875 l 262
EndSplineSet
EndChar

StartChar: M
Encoding: 219 77 79
GlifName: M_
Width: 861
VWidth: 0
Flags: HW
LayerCount: 2
Back
Fore
SplineSet
599 318 m 1
 598.915039062 111 l 2
 598.875 14.09765625 649.744140625 0 703 0 c 0
 754.764648438 0 806.736328125 16.80078125 807.063476562 86 c 2
 807.063476562 86 809 335.952148438 809 496.185546875 c 0
 809 571 744.131835938 595 661 595 c 3
 616.165039062 595 565.809570312 591.984375 539 558 c 0
 468 468 431 297 431 297 c 1
 431 297 403 476 327 560 c 0
 297.741210938 592.338867188 249.88671875 595.645507812 202 595.645507812 c 3
 117.435546875 595.645507812 60.5927734375 568 60.5927734375 496.185546875 c 0
 60.5927734375 336.225585938 62.529296875 86 62.529296875 86 c 2
 62.8564453125 16.80078125 88.7041015625 0 140.46875 0 c 0
 193.724609375 0 222.125 14.09765625 222.084960938 111 c 2
 222 318 l 1
 222 318 262 150 308 54 c 0
 333.196289062 1.416015625 375.469726562 0.025390625 417 0 c 0
 458.530273438 -0.025390625 499 10 521 52 c 0
 563.653320312 133.428710938 599 318 599 318 c 1
EndSplineSet
EndChar

StartChar: C
Encoding: 209 67 80
GlifName: C_
Width: 697
VWidth: 0
Flags: HW
LayerCount: 2
Back
SplineSet
424.216796875 294 m 260
 424.216796875 374.456054688 402.780273438 463.075195312 358.767578125 463.075195312 c 260
 313.354492188 463.075195312 290.44140625 373.3515625 290.44140625 294 c 260
 290.44140625 215.59765625 312.293945312 132.232421875 358.767578125 132.232421875 c 260
 405.276367188 132.232421875 424.216796875 214.504882812 424.216796875 294 c 260
358.767578125 -4.890625 m 260
 182.670898438 -4.890625 40.271484375 103.334960938 40.271484375 294 c 260
 40.271484375 485.971679688 176.430664062 600.85546875 358.767578125 600.85546875 c 260
 541.048828125 600.85546875 674.263671875 485.971679688 674.263671875 294 c 260
 674.263671875 103.334960938 534.8125 -4.890625 358.767578125 -4.890625 c 260
EndSplineSet
Fore
SplineSet
374.83984375 349.390625 m 260
 374.83984375 380.750976562 393.4453125 407.915039062 393.4453125 426.470703125 c 260
 393.4453125 447.280273438 386.508789062 461.23828125 361.8671875 461.23828125 c 260
 320.872070312 461.23828125 294.783203125 391.442382812 294.783203125 324.920898438 c 260
 294.783203125 246.817382812 342.833984375 191.720703125 419.639648438 191.720703125 c 260
 454.931640625 191.720703125 491.194335938 196.200195312 519.626953125 205.216796875 c 260
 558.419921875 216.606445312 573.750976562 237.541015625 594.841796875 237.541015625 c 260
 633.959960938 237.541015625 653 215.239257812 653 191.720703125 c 260
 653 135.405273438 553.717773438 -5.935546875 372.392578125 -5.935546875 c 260
 186.365234375 -5.935546875 40.12109375 102.907226562 40.12109375 296.229492188 c 260
 40.12109375 486.360351562 174.896484375 601 360.392578125 601 c 260
 561.982421875 601 639.657226562 528.760742188 639.657226562 427.400390625 c 260
 639.657226562 368.181640625 599.592773438 266.62890625 462.040039062 266.62890625 c 260
 414.3984375 266.62890625 374.83984375 273.942382812 374.83984375 349.390625 c 260
EndSplineSet
EndChar

StartChar: G
Encoding: 213 71 81
GlifName: G_
Width: 682
VWidth: 0
Flags: HW
LayerCount: 2
Back
SplineSet
375.71875 349.390625 m 260
 375.71875 380.750976562 394.32421875 407.915039062 394.32421875 426.470703125 c 260
 394.32421875 447.280273438 387.387695312 461.23828125 362.74609375 461.23828125 c 260
 321.750976562 461.23828125 295.662109375 391.442382812 295.662109375 324.920898438 c 260
 295.662109375 246.817382812 343.712890625 191.720703125 420.518554688 191.720703125 c 260
 455.810546875 191.720703125 492.073242188 196.200195312 520.505859375 205.216796875 c 260
 559.298828125 216.606445312 574.629882812 237.541015625 595.720703125 237.541015625 c 260
 634.838867188 237.541015625 653.87890625 215.239257812 653.87890625 191.720703125 c 260
 653.87890625 135.405273438 554.596679688 -5.935546875 373.271484375 -5.935546875 c 260
 187.244140625 -5.935546875 41 102.907226562 41 296.229492188 c 260
 41 486.360351562 175.775390625 601 361.271484375 601 c 260
 562.861328125 601 640.536132812 528.760742188 640.536132812 427.400390625 c 260
 640.536132812 368.181640625 600.471679688 266.62890625 462.918945312 266.62890625 c 260
 415.27734375 266.62890625 375.71875 273.942382812 375.71875 349.390625 c 260
EndSplineSet
Fore
SplineSet
394.331054688 434 m 0
 394.331054688 450 387.39453125 461.23828125 362.752929688 461.23828125 c 0
 331.278320312 461.23828125 294.278320312 426 294.278320312 294 c 0
 294.278320312 155 338.278320312 129.143554688 375.278320312 129.143554688 c 3
 401.232421875 129.143554688 424.026367188 143.75390625 424.026367188 171 c 1
 393.278320312 171 358.278320312 198.774414062 358.278320312 228 c 0
 358.278320312 268 376.1796875 291 431.278320312 291 c 2
 546.662109375 291 l 2
 607.556640625 291 653 268.46875 653 184 c 4
 653 83 571.646484375 -5.935546875 373.278320312 -5.935546875 c 0
 187.250976562 -5.935546875 41.0068359375 102.907226562 41.0068359375 296.229492188 c 0
 41.0068359375 486.360351562 175.782226562 601 361.278320312 601 c 0
 562.869140625 601 635.54296875 527 635.54296875 450 c 0
 635.54296875 411.913085938 611.278320312 354 483.278320312 354 c 0
 406.278320312 354 394.331054688 365 394.331054688 434 c 0
EndSplineSet
EndChar

StartChar: Q
Encoding: 223 81 82
GlifName: Q_
Width: 714
VWidth: 0
Flags: HW
LayerCount: 2
Back
Fore
SplineSet
592.0078125 -40 m 260
 635.951171875 -42.23046875 658.650390625 -64 658.650390625 -125 c 260
 658.650390625 -201 611.0078125 -217 553.0078125 -217 c 260
 420.00390625 -217 355.0078125 -170 305.0078125 -84 c 260
 270.112304688 -23.98046875 269.0078125 13 269.0078125 58 c 261
 447.0078125 58 l 260
 447.0078125 -25 527.608398438 -36.7314453125 592.0078125 -40 c 260
423.953125 294 m 260
 423.953125 374.456054688 402.516601562 463.075195312 358.50390625 463.075195312 c 260
 313.090820312 463.075195312 290.177734375 373.3515625 290.177734375 294 c 260
 290.177734375 215.59765625 312.030273438 132.232421875 358.50390625 132.232421875 c 260
 405.012695312 132.232421875 423.953125 214.504882812 423.953125 294 c 260
  Spiro
    423.953 294 o
    416.78 373.517 o
    395.005 437.168 o
    358.504 463.075 o
    320.637 436.923 o
    297.785 373.027 o
    290.178 294 o
    297.55 217.287 o
    320.165 156.704 o
    358.504 132.232 o
    396.114 156.461 o
    417.334 216.801 o
    0 0 z
  EndSpiro
358.50390625 -4.890625 m 260
 182.407226562 -4.890625 40.0078125 103.334960938 40.0078125 294 c 260
 40.0078125 485.971679688 176.166992188 600.85546875 358.50390625 600.85546875 c 260
 540.78515625 600.85546875 674 485.971679688 674 294 c 260
 674 103.334960938 534.548828125 -4.890625 358.50390625 -4.890625 c 260
  Spiro
    358.504 -4.89062 o
    197.807 30.1603 o
    83.3654 131.903 o
    40.0078 294 o
    81.9808 458.739 o
    195.034 564.033 o
    358.504 600.855 o
    521.173 564.033 o
    632.791 458.739 o
    674 294 o
    631.408 131.903 o
    518.401 30.1603 o
    0 0 z
  EndSpiro
EndSplineSet
EndChar

StartChar: W
Encoding: 229 87 83
GlifName: W_
Width: 973
VWidth: 0
Flags: HW
LayerCount: 2
Back
Fore
SplineSet
641.958984375 145.672851562 m 0
 693.649414062 145.672851562 696.631835938 197.110351562 696.631835938 303.081054688 c 0
 696.631835938 349.485351562 697.837890625 435.9609375 697.837890625 506.02734375 c 0
 697.837890625 565.560546875 725.872070312 595 811.360351562 595 c 0
 905.022460938 595 936 549.028320312 936 322.53125 c 0
 936 76.060546875 773.079101562 -4.46875 653.595703125 -4.46875 c 0
 602.655273438 -4.46875 543.481445312 9.994140625 492.201171875 45.421875 c 1
 441.178710938 8.8798828125 381.79296875 -6 330.43359375 -6 c 0
 210.232421875 -6 44.189453125 74.529296875 44.189453125 321 c 0
 44.189453125 547.497070312 74.9873046875 593.46875 167.829101562 593.46875 c 0
 253.319335938 593.46875 281.3515625 564.029296875 281.3515625 504.49609375 c 0
 281.3515625 434.373046875 282.557617188 347.829101562 282.557617188 302.469726562 c 0
 282.557617188 199.979492188 282.5625 144.141601562 338.796875 144.141601562 c 0
 372.702148438 144.141601562 385.651367188 166.272460938 390.547851562 211.407226562 c 1
 382.090820312 243.986328125 377.3515625 327.890625 377.3515625 369.53125 c 0
 377.3515625 567 393.99609375 595 486.837890625 595 c 0
 600.837890625 595 602.837890625 548.446289062 602.837890625 368 c 0
 602.837890625 324.889648438 597.853515625 239.85546875 588.989257812 206.44140625 c 1
 594.159179688 166.6328125 607.504882812 145.672851562 641.958984375 145.672851562 c 0
EndSplineSet
EndChar

StartChar: Z
Encoding: 232 90 84
GlifName: Z_
Width: 651
VWidth: 0
Flags: HW
LayerCount: 2
Back
Fore
SplineSet
540.399414062 152.720703125 m 256
 610.399414062 152.720703125 629.014648438 125.333984375 629.014648438 65.7265625 c 256
 629.014648438 8.7294921875 590.448242188 -0.1064453125 504.559570312 -0.1064453125 c 256
 416.080078125 -0.1064453125 218.959960938 -0.1064453125 145.041015625 -0.1064453125 c 256
 94.640625 -0.1064453125 34.16015625 51.0390625 34.16015625 116 c 256
 34.16015625 184.30078125 52.560546875 208 109.193359375 259.389648438 c 256
 176.4453125 320.415039062 253.560546875 380 332.560546875 442.073242188 c 257
 302.662109375 442.173828125 208.634765625 442.173828125 179.559570312 442.173828125 c 256
 93.6728515625 442.173828125 55.107421875 463.329101562 55.107421875 520.326171875 c 256
 55.107421875 579.93359375 98 595 162.560546875 595 c 260
 256.83984375 595 438.349609375 595.053710938 532.559570312 595.053710938 c 256
 606.479492188 595.053710938 630 533.061523438 630 501.533203125 c 256
 630 425.029296875 614.067382812 410.3359375 562.180664062 364.875 c 256
 491.560546875 303 389.560546875 224 306.560546875 152.407226562 c 257
 357.82421875 152.572265625 498.634765625 152.720703125 540.399414062 152.720703125 c 256
EndSplineSet
EndChar

StartChar: Y
Encoding: 231 89 85
GlifName: Y_
Width: 623
VWidth: 0
Flags: HW
LayerCount: 2
Back
Fore
SplineSet
416.436523438 130.803710938 m 2
 416.568359375 33.9013671875 379.388671875 0.1044921875 309.8203125 0.1044921875 c 0
 241.452148438 0.1044921875 207.796875 28.109375 206.880859375 124.154296875 c 2
 205.581054688 260.375 l 1
 56.4365234375 406.662109375 l 2
 31.6572265625 430.966796875 20.2900390625 455.612304688 20.2900390625 479.104492188 c 0
 20.2900390625 506.650390625 33.759765625 532.610351562 56.841796875 554.575195312 c 0
 81.435546875 577.978515625 106.176757812 595.4609375 133.436523438 595.4609375 c 0
 153.94921875 595.4609375 177.41015625 587.247070312 200.26171875 561.5390625 c 2
 311.856445312 438 l 1
 404.119140625 542.229492188 l 2
 437.442382812 580.596679688 471.086914062 595 499.436523438 595 c 0
 525.05078125 595 548.577148438 582.608398438 571.92578125 559.258789062 c 0
 594.950195312 536.234375 608 514.22265625 608 490.104492188 c 0
 608 463.583984375 592.354492188 434.515625 556.998046875 398.752929688 c 2
 416.265625 256.40234375 l 1
 416.436523438 130.803710938 l 2
EndSplineSet
EndChar

StartChar: X
Encoding: 230 88 86
GlifName: X_
Width: 614
VWidth: 0
Flags: HW
LayerCount: 2
Back
Fore
SplineSet
163 296 m 1
 48 406.662109375 l 2
 22.8154666656 429.886889228 11.853515625 455.612304688 11.853515625 479.104492188 c 0
 11.853515625 506.650390625 25.3232421875 532.610351562 48.4052734375 554.575195312 c 0
 72.9990234375 577.978515625 97.740234375 595.4609375 125 595.4609375 c 0
 145.512695312 595.4609375 169.775370971 587.924833239 191.825195312 561.5390625 c 2
 303.419921875 428 l 1
 395.682617188 542.229492188 l 2
 427.600777265 581.747037224 462.650390625 595 491 595 c 0
 516.614257812 595 540.140625 582.608398438 563.489257812 559.258789062 c 0
 586.513671875 536.234375 599.563476562 514.22265625 599.563476562 490.104492188 c 0
 599.563476562 463.583984375 585.937323963 431.907716307 548.561523438 398.752929688 c 2
 449 306 l 5
 563.416992188 188.337890625 l 2
 588.012034895 164.104282391 599.563476562 139.387695312 599.563476562 115.895507812 c 0
 599.563476562 88.349609375 586.09375 62.3896484375 563.01171875 40.4248046875 c 0
 538.41796875 17.021484375 513.676757812 -0.4609375 486.416992188 -0.4609375 c 0
 465.904296875 -0.4609375 441.352190897 6.83652709179 419.591796875 33.4609375 c 2
 307.997070312 170 l 1
 215.734375 52.7705078125 l 2
 184.319370973 12.8544295249 148.766601562 0 120.416992188 0 c 0
 94.802734375 0 71.2763671875 12.3916015625 47.927734375 35.7412109375 c 0
 24.9033203125 58.765625 11.853515625 80.77734375 11.853515625 104.895507812 c 0
 11.853515625 131.416015625 26.4943001677 161.750429833 62.85546875 196.247070312 c 2
 163 296 l 1
EndSplineSet
EndChar
